<?xml version="1.0" standalone="no"?>
<!DOCTYPE svg PUBLIC "-//W3C//DTD SVG 20010904//EN"
 "http://www.w3.org/TR/2001/REC-SVG-20010904/DTD/svg10.dtd">
<svg version="1.0" xmlns="http://www.w3.org/2000/svg"
 width="2048.000000pt" height="2048.000000pt" viewBox="0 0 2048.000000 2048.000000"
 preserveAspectRatio="xMidYMid meet">
<metadata>
Created by potrace 1.11, written by Peter Selinger 2001-2013
</metadata>
<g transform="translate(0.000000,2048.000000) scale(0.100000,-0.100000)"
fill="#000000" stroke="none">
<path d="M3 11758 c2 -8157 4 -8729 20 -8823 21 -126 21 -232 0 -365 -15 -93
-17 -242 -20 -1338 l-3 -1232 10240 0 10240 0 0 4544 0 4544 -72 5 c-76 5
-210 19 -363 38 -49 6 -147 15 -216 19 -69 3 -132 11 -139 15 -8 5 -83 12
-167 16 -94 4 -159 11 -167 18 -8 7 -32 11 -53 9 -31 -2 -38 -7 -36 -23 3 -30
12 -74 28 -132 8 -29 22 -77 30 -105 8 -29 21 -80 30 -113 9 -33 23 -78 31
-100 8 -23 14 -47 14 -54 0 -7 6 -27 14 -44 7 -18 22 -61 34 -97 32 -100 43
-132 57 -165 7 -16 15 -39 18 -50 3 -11 15 -45 26 -75 12 -30 21 -63 21 -73 0
-10 7 -20 15 -23 9 -4 15 -19 15 -40 0 -23 6 -37 20 -44 13 -7 20 -21 20 -40
0 -17 5 -30 10 -30 6 0 10 -13 10 -30 0 -16 -5 -30 -11 -30 -5 0 -7 -5 -4 -10
4 -6 11 -8 16 -5 20 13 28 -7 13 -31 -12 -17 -22 -23 -36 -18 -12 4 -24 0 -32
-11 -18 -25 -107 -33 -125 -11 -9 11 -30 16 -61 16 -30 0 -52 6 -60 15 -7 8
-23 15 -37 15 -13 0 -31 7 -39 15 -9 8 -24 15 -35 15 -10 0 -19 4 -19 9 0 5
-9 13 -20 16 -11 3 -20 13 -20 21 0 8 -9 14 -21 14 -16 0 -20 5 -16 20 4 15 0
20 -13 20 -21 0 -80 49 -80 67 0 7 -7 13 -15 13 -9 0 -18 7 -21 15 -4 8 -11
15 -16 15 -6 0 -26 14 -45 30 -18 17 -38 30 -44 30 -5 0 -23 10 -39 22 -21 15
-26 24 -18 29 10 6 10 11 1 20 -9 9 -16 9 -28 -1 -12 -10 -19 -10 -28 -1 -9 9
-9 14 3 22 11 8 7 9 -17 5 -21 -3 -35 0 -43 9 -7 8 -18 15 -24 15 -6 0 -19 9
-28 19 -11 13 -24 18 -37 14 -15 -4 -21 -1 -21 11 0 10 5 14 10 11 6 -3 10 1
10 10 0 12 -4 14 -19 5 -24 -13 -61 -13 -61 -1 0 5 9 13 20 16 25 8 26 21 3
29 -11 4 -22 1 -29 -8 -14 -20 -48 -20 -64 -1 -7 8 -21 15 -31 15 -10 0 -23 8
-28 19 -8 13 -18 17 -37 13 -18 -3 -30 0 -36 12 -5 9 -19 16 -31 16 -29 0 -43
10 -51 36 -4 14 -1 28 9 38 19 19 12 35 -13 32 -11 -2 -18 -13 -20 -33 -2 -22
-10 -33 -25 -37 -38 -10 -65 -7 -71 9 -3 9 0 15 9 15 21 0 18 17 -5 30 -15 8
-18 8 -14 -3 3 -10 -6 -16 -33 -20 -58 -10 -70 -9 -89 11 -13 13 -35 17 -92
18 -53 0 -76 4 -82 15 -7 10 -31 14 -92 14 -50 0 -92 5 -106 13 -15 9 -57 13
-115 13 -69 0 -98 4 -117 17 -19 12 -50 17 -130 17 -78 1 -113 5 -134 17 -20
12 -42 15 -69 11 -64 -9 -124 5 -130 29 -5 16 -11 19 -31 14 -72 -18 -116 -19
-122 -2 -5 12 -20 16 -70 16 -45 0 -65 4 -71 15 -5 8 -29 16 -61 19 -30 3 -59
10 -67 16 -7 6 -29 11 -49 12 -25 1 -40 7 -47 20 -8 15 -19 19 -52 16 -35 -3
-42 0 -41 15 2 16 -4 17 -41 11 -24 -3 -58 -1 -77 5 -18 6 -78 25 -133 42 -55
17 -116 37 -135 44 -19 7 -80 26 -135 44 -55 17 -242 77 -415 134 -425 140
-403 135 -595 147 -184 12 -287 28 -307 48 -6 6 -18 12 -25 12 -7 0 -13 7 -13
15 0 8 4 15 10 15 5 0 7 7 4 15 -8 21 -21 19 -29 -5 -5 -16 -10 -17 -30 -8
-20 9 -23 16 -19 47 4 33 3 34 -7 13 -15 -27 -55 -27 -113 1 -36 18 -55 19
-225 12 -296 -11 -388 -10 -521 4 -97 10 -132 18 -157 34 -18 12 -28 23 -23
25 19 7 10 32 -11 32 -16 0 -19 -4 -14 -20 6 -19 2 -20 -73 -20 -65 0 -81 3
-86 16 -5 14 -16 16 -61 11 -72 -7 -135 16 -135 50 0 14 -6 23 -15 23 -8 0
-15 -9 -15 -19 0 -30 -15 -33 -54 -10 -43 25 -45 15 -8 -37 43 -63 62 -100 62
-126 0 -13 7 -33 15 -44 8 -10 15 -30 15 -44 0 -13 6 -42 14 -65 17 -50 36
-126 47 -185 4 -25 13 -70 19 -100 26 -128 32 -169 41 -250 5 -47 13 -105 18
-130 6 -25 10 -72 11 -105 0 -33 7 -103 15 -155 8 -52 15 -131 15 -175 0 -44
7 -143 15 -220 8 -77 15 -192 15 -255 0 -63 5 -154 10 -202 6 -48 15 -201 20
-340 6 -139 15 -289 20 -333 5 -44 9 -116 9 -161 1 -44 8 -125 16 -180 19
-128 19 -458 0 -709 -8 -104 -15 -230 -15 -280 0 -49 -7 -146 -15 -215 -8 -69
-15 -163 -15 -210 0 -47 -7 -130 -15 -184 -8 -55 -15 -131 -15 -170 0 -39 -7
-116 -15 -171 -8 -55 -15 -129 -15 -165 0 -36 -7 -103 -15 -150 -8 -47 -15
-112 -15 -145 -1 -33 -7 -96 -15 -140 -8 -44 -15 -107 -15 -140 0 -33 -7 -96
-15 -140 -8 -44 -15 -100 -15 -125 0 -25 -7 -90 -15 -145 -8 -55 -21 -154 -30
-220 -9 -66 -21 -151 -27 -190 -6 -38 -14 -97 -18 -130 -12 -104 -55 -319 -78
-382 -31 -89 -190 -209 -367 -276 -22 -8 -58 -22 -80 -30 -22 -8 -67 -22 -100
-32 -33 -9 -76 -22 -95 -28 -19 -6 -53 -14 -75 -19 -22 -4 -71 -14 -110 -22
-159 -32 -292 -55 -385 -66 -104 -11 -258 -29 -370 -41 -52 -6 -176 -14 -275
-20 -99 -5 -259 -13 -355 -19 -225 -12 -909 -12 -1155 1 -104 5 -280 13 -390
18 -198 9 -373 22 -575 42 -58 6 -154 15 -214 19 -59 5 -136 13 -170 19 -56 9
-130 19 -312 41 -38 4 -88 13 -110 19 -21 6 -55 11 -75 11 -20 0 -49 4 -65 10
-16 5 -65 17 -109 25 -138 27 -159 31 -195 42 -19 6 -62 19 -95 29 -136 39
-234 86 -296 141 -14 13 -87 55 -163 93 -76 38 -159 85 -186 104 -76 55 -141
168 -185 321 -10 33 -22 71 -27 85 -6 14 -13 45 -18 70 -4 25 -12 65 -18 90
-26 108 -72 378 -72 426 0 21 -5 59 -11 83 -5 24 -14 94 -19 155 -5 61 -14
156 -19 211 -29 293 -61 995 -61 1330 0 227 30 657 65 935 8 63 15 135 15 160
0 24 6 87 14 140 18 118 35 250 46 358 5 46 13 113 19 150 5 37 17 115 25 175
43 295 63 430 87 567 6 36 15 90 19 121 4 31 12 79 18 105 12 51 28 135 42
217 5 26 13 62 19 80 5 17 17 59 26 92 9 33 23 73 31 88 8 16 14 33 14 38 0
19 139 309 195 404 19 33 38 67 41 75 4 8 42 74 86 146 43 73 78 139 78 148 0
8 -14 19 -32 25 -192 58 -359 161 -398 246 -64 141 -65 541 -1 713 21 56 71
115 116 136 42 20 44 33 10 46 -118 45 -219 115 -246 171 -65 134 -66 275 -3
544 16 67 43 157 63 207 5 12 19 48 31 78 64 161 131 248 205 269 50 14 75 14
75 1 0 -5 7 -10 15 -10 15 0 21 25 8 33 -5 2 -2 2 5 1 7 -2 12 6 12 20 0 18
-14 35 -52 62 -124 89 -227 208 -273 314 -38 86 -24 316 26 435 4 11 20 49 34
85 47 115 135 283 177 337 72 93 269 275 428 393 148 110 251 183 288 205 28
17 77 49 82 55 7 7 40 28 65 40 11 6 34 19 50 30 17 11 39 24 50 30 11 6 34
19 50 30 17 11 39 24 50 30 11 5 47 26 80 45 33 19 70 39 82 44 11 6 24 15 28
20 3 6 15 11 26 11 10 0 19 5 19 11 0 6 14 9 33 8 21 -2 31 1 30 9 -3 13 35
37 44 28 3 -3 11 1 17 10 6 8 21 16 33 17 13 0 25 7 27 14 3 7 19 13 36 13 16
0 30 4 30 10 0 9 17 18 130 67 19 8 48 21 63 29 16 8 38 14 50 14 25 -1 57
-22 57 -39 0 -6 7 -11 15 -11 8 0 15 9 15 21 0 12 -4 17 -11 14 -10 -7 -38 21
-39 38 0 4 11 7 25 7 13 0 28 7 33 17 7 12 18 15 46 10 19 -3 38 -1 41 4 4 5
1 9 -4 9 -6 0 -11 5 -11 10 0 6 13 10 28 10 18 0 40 12 64 36 28 26 43 34 58
29 26 -8 36 16 22 53 -6 15 -20 61 -32 102 -12 41 -25 84 -30 95 -4 11 -18 54
-31 95 -12 41 -27 89 -34 105 -6 17 -20 56 -31 89 -24 73 -41 83 -121 66 -32
-6 -110 -15 -173 -19 -63 -5 -155 -13 -205 -20 -49 -6 -135 -16 -190 -22 -253
-26 -264 -28 -307 -55 -93 -58 -172 -124 -388 -325 -158 -148 -175 -167 -184
-196 -4 -12 -30 -37 -59 -57 -29 -19 -67 -50 -85 -68 -34 -34 -140 -178 -247
-335 -132 -194 -213 -311 -260 -378 -27 -38 -79 -115 -117 -170 -37 -55 -121
-176 -188 -270 -66 -93 -141 -203 -167 -243 -69 -106 -245 -344 -286 -386 -41
-42 -68 -45 -148 -17 -54 18 -201 93 -228 114 -7 6 -22 16 -32 22 -91 51 -359
260 -359 280 0 7 30 39 67 71 118 104 343 341 343 363 0 7 -22 11 -58 11 -98
0 -191 42 -263 117 -68 71 -103 120 -148 207 -65 123 -83 187 -82 289 1 78 5
96 38 165 19 42 38 79 42 82 4 3 30 35 59 71 65 84 204 216 307 294 49 36 167
103 309 175 222 112 287 150 386 228 68 54 858 842 882 880 17 28 21 55 25
160 7 169 -24 762 -40 778 -4 4 -47 11 -95 15 -48 4 -136 12 -197 18 -60 6
-137 10 -170 9 -174 -3 -751 16 -763 25 -11 9 -12 110 -7 546 4 295 11 590 15
656 10 133 13 139 83 150 39 7 300 90 357 113 14 6 68 27 120 47 52 20 104 40
115 45 11 4 137 58 280 118 143 61 292 124 330 142 39 17 79 35 90 40 96 42
229 102 310 140 33 15 78 35 100 45 35 16 136 62 272 126 40 19 52 20 330 10
158 -6 358 -15 443 -21 85 -6 236 -15 335 -20 715 -40 1298 -93 1590 -145 152
-27 190 -37 250 -66 171 -84 548 -404 735 -624 23 -27 65 -75 94 -105 28 -30
62 -71 75 -90 180 -255 217 -334 227 -490 7 -112 -12 -285 -46 -410 -39 -145
-73 -257 -89 -295 -5 -11 -19 -49 -32 -85 -12 -36 -25 -69 -29 -75 -4 -5 -11
-21 -15 -35 -16 -50 -115 -258 -197 -410 -52 -97 -103 -168 -172 -240 -39 -41
-95 -102 -122 -135 -92 -110 -99 -117 -146 -151 -27 -20 -56 -53 -69 -78 -18
-38 -20 -55 -16 -137 3 -52 12 -116 21 -144 41 -132 58 -194 64 -245 l7 -55
195 3 c199 4 366 -11 470 -42 83 -25 307 -155 950 -551 145 -89 436 -267 730
-446 8 -5 74 -43 145 -84 72 -41 137 -80 145 -85 8 -6 22 -13 30 -17 8 -4 48
-26 88 -50 41 -24 75 -43 76 -43 1 0 49 -26 107 -58 93 -52 376 -193 454 -227
105 -45 182 -68 295 -90 79 -15 126 -27 240 -60 195 -56 264 -66 488 -74 159
-5 205 -10 212 -21 7 -12 12 -11 30 5 24 22 156 43 271 44 37 1 91 6 120 11
30 6 95 15 144 19 50 5 124 14 165 20 190 30 269 43 325 53 33 6 83 14 110 18
76 11 279 51 365 72 25 6 68 14 97 18 28 5 66 13 85 18 18 6 69 18 113 27 44
9 103 23 130 30 28 8 79 21 115 30 36 9 79 21 95 27 17 5 48 14 71 18 22 5 51
13 65 18 13 5 51 17 84 27 33 9 70 21 83 26 32 12 317 105 382 125 30 9 73 22
95 30 23 8 50 14 60 14 11 0 33 7 49 15 15 8 36 15 45 15 9 0 36 6 61 14 25 8
74 22 110 31 36 9 89 23 118 30 28 8 76 21 105 29 118 32 255 65 309 76 26 5
56 13 67 19 11 6 31 11 44 11 14 0 47 6 73 14 27 8 74 20 104 26 30 7 84 19
120 26 152 34 208 45 265 54 33 6 74 14 90 20 49 15 171 23 190 13 17 -10 30
-6 113 28 l32 13 0 3178 0 3178 -10240 0 -10240 0 3 -8722z"/>
<path d="M6735 15149 c-4 -6 -5 -12 -2 -15 2 -3 7 2 10 11 7 17 1 20 -8 4z"/>
<path d="M6690 15055 c0 -8 5 -15 10 -15 6 0 10 7 10 15 0 8 -4 15 -10 15 -5
0 -10 -7 -10 -15z"/>
<path d="M6657 15003 c-10 -9 -9 -23 1 -23 5 0 9 7 9 15 0 17 -1 18 -10 8z"/>
<path d="M6630 14966 c0 -9 0 -19 -1 -23 0 -4 3 -9 8 -10 12 -4 14 35 2 42 -5
4 -9 -1 -9 -9z"/>
<path d="M6585 14854 c-9 -20 -18 -43 -19 -50 -1 -8 -9 -20 -17 -26 -22 -19
-52 -69 -44 -76 9 -9 84 79 79 93 -3 6 0 25 6 40 9 23 13 26 20 15 9 -13 10
-13 10 0 0 8 -4 21 -9 28 -6 10 -13 3 -26 -24z"/>
<path d="M6636 14874 c-4 -9 -4 -19 -2 -21 8 -8 26 8 26 23 0 19 -16 18 -24
-2z"/>
<path d="M6610 14800 c0 -19 3 -21 12 -12 9 9 9 15 0 24 -9 9 -12 7 -12 -12z"/>
<path d="M6570 14725 c0 -8 5 -15 10 -15 6 0 10 7 10 15 0 8 -4 15 -10 15 -5
0 -10 -7 -10 -15z"/>
<path d="M6481 14671 c-10 -18 -6 -31 11 -31 5 0 7 4 4 9 -3 5 1 12 10 15 8 3
12 10 9 16 -10 15 -23 12 -34 -9z"/>
<path d="M6216 14614 c-9 -24 -7 -44 5 -44 5 0 7 6 4 13 -4 6 1 3 9 -7 9 -11
16 -33 16 -50 0 -16 3 -26 7 -23 13 14 3 79 -16 103 -16 20 -20 21 -25 8z"/>
<path d="M6436 14614 c-10 -25 -7 -34 9 -34 9 0 15 9 15 25 0 28 -15 34 -24 9z"/>
<path d="M6507 14596 c-12 -10 -15 -16 -7 -21 16 -10 40 2 40 20 0 18 -9 19
-33 1z"/>
<path d="M6486 14537 c3 -10 9 -15 12 -12 3 3 0 11 -7 18 -10 9 -11 8 -5 -6z"/>
<path d="M6400 14510 c0 -21 4 -30 13 -27 6 2 12 14 12 27 0 13 -6 25 -12 28
-9 2 -13 -7 -13 -28z"/>
<path d="M6180 14502 c0 -11 9 -27 20 -37 19 -17 20 -17 20 -1 0 23 -18 56
-30 56 -6 0 -10 -8 -10 -18z"/>
<path d="M6461 14502 c-7 -12 -16 -20 -22 -17 -5 4 -9 -3 -9 -14 0 -12 4 -21
9 -21 13 0 43 49 38 63 -2 7 -9 2 -16 -11z"/>
<path d="M6250 14470 c0 -11 2 -20 4 -20 2 0 6 9 9 20 3 11 1 20 -4 20 -5 0
-9 -9 -9 -20z"/>
<path d="M6364 14483 c3 -6 1 -13 -6 -15 -8 -3 -5 -11 9 -25 11 -11 22 -26 25
-34 2 -7 10 -9 16 -5 18 11 15 26 -5 26 -11 0 -14 3 -7 8 7 5 3 15 -14 32 -13
14 -22 20 -18 13z"/>
<path d="M6304 14416 c-12 -31 -10 -51 4 -62 13 -9 12 -14 -7 -33 -12 -12 -28
-20 -34 -18 -16 5 -16 63 1 60 6 -2 12 2 12 7 0 6 -12 10 -26 10 -14 0 -23 -4
-20 -9 3 -5 -3 -20 -14 -34 -20 -25 -20 -26 -2 -36 11 -6 22 -7 26 -4 3 3 6
-5 6 -19 0 -15 -6 -29 -12 -31 -10 -4 -10 -6 0 -6 7 -1 10 -6 6 -12 -4 -7 -1
-10 7 -7 8 3 13 13 13 22 -1 9 4 16 12 16 8 0 14 6 14 13 0 6 13 28 30 47 16
19 26 37 21 40 -4 3 -7 13 -6 22 2 11 -2 15 -11 11 -8 -3 -14 1 -14 10 0 8 6
18 13 20 9 4 9 6 -1 6 -7 1 -15 -5 -18 -13z"/>
<path d="M6157 14387 c-8 -21 2 -49 14 -41 5 3 7 10 4 15 -4 5 -1 9 4 9 6 0
11 5 11 11 0 5 -4 8 -9 5 -5 -4 -11 -1 -13 6 -3 8 -7 6 -11 -5z"/>
<path d="M8900 14313 c0 -7 7 -13 15 -13 8 0 15 -7 15 -15 0 -8 4 -15 9 -15 5
0 5 12 -1 28 -11 29 -38 40 -38 15z"/>
<path d="M8840 14280 c0 -5 7 -10 16 -10 8 0 12 5 9 10 -3 6 -10 10 -16 10 -5
0 -9 -4 -9 -10z"/>
<path d="M8782 14261 c-11 -7 -10 -10 3 -15 20 -7 38 1 30 15 -7 11 -16 11
-33 0z"/>
<path d="M8903 14257 c-4 -8 -17 -17 -27 -20 -10 -4 -16 -10 -13 -13 10 -10
35 3 47 25 12 23 6 29 -7 8z"/>
<path d="M6120 14225 c0 -28 19 -43 30 -25 10 17 3 37 -16 44 -10 4 -14 -2
-14 -19z"/>
<path d="M8810 14210 c-8 -5 -26 -10 -40 -10 -24 -1 -24 -2 -3 -10 27 -11 63
-2 63 16 0 16 -1 17 -20 4z"/>
<path d="M8695 14190 c4 -6 11 -8 16 -5 14 9 11 15 -7 15 -8 0 -12 -5 -9 -10z"/>
<path d="M6076 14174 c-9 -22 -8 -24 9 -24 8 0 15 9 15 20 0 24 -15 27 -24 4z"/>
<path d="M6167 14169 c-7 -25 2 -30 24 -16 24 15 24 23 0 30 -13 3 -21 -1 -24
-14z"/>
<path d="M8550 14155 c0 -8 4 -15 10 -15 5 0 7 7 4 15 -4 8 -8 15 -10 15 -2 0
-4 -7 -4 -15z"/>
<path d="M6040 14130 c0 -4 6 -13 14 -19 10 -9 15 -8 19 3 3 8 -2 16 -14 19
-10 3 -19 2 -19 -3z"/>
<path d="M8490 14091 c-13 -14 -23 -27 -22 -28 18 -22 -76 -73 -134 -73 -26 0
-66 -25 -53 -33 2 -1 12 -9 22 -16 15 -12 17 -12 11 4 -6 14 -3 16 13 11 13
-4 27 -1 36 9 9 8 25 15 36 15 29 0 108 56 115 82 6 21 7 22 19 6 13 -16 16
-15 50 7 20 14 40 25 46 25 5 0 12 4 15 9 3 5 -5 8 -18 7 -13 0 -22 -4 -20 -7
12 -20 -64 -25 -80 -6 -9 11 -16 8 -36 -12z"/>
<path d="M8395 14093 c2 -10 4 -20 4 -22 1 -2 8 2 16 9 16 14 11 30 -10 30 -7
0 -12 -8 -10 -17z"/>
<path d="M6000 14073 c0 -20 4 -24 20 -20 26 7 26 -9 0 -23 -16 -9 -18 -14 -8
-35 13 -28 30 -23 26 8 -1 12 1 28 5 35 12 18 -1 49 -23 55 -16 4 -20 0 -20
-20z"/>
<path d="M6100 14054 c0 -8 5 -12 10 -9 6 4 8 11 5 16 -9 14 -15 11 -15 -7z"/>
<path d="M8345 14050 c-9 -15 3 -29 23 -26 25 4 28 36 3 36 -11 0 -23 -4 -26
-10z"/>
<path d="M10933 14044 c-4 -11 1 -22 13 -31 17 -12 19 -12 22 2 8 38 -22 62
-35 29z"/>
<path d="M11012 14021 c4 -26 1 -35 -13 -38 -23 -6 -32 -30 -19 -52 5 -10 8
-20 7 -22 -1 -2 4 2 11 10 6 8 12 23 12 34 0 40 25 8 31 -39 3 -27 7 -42 8
-34 1 13 2 13 11 0 19 -29 11 36 -12 97 -26 71 -42 91 -36 44z"/>
<path d="M8260 14016 c0 -18 35 -22 45 -6 3 6 2 10 -4 10 -5 0 -16 3 -25 6
-11 4 -16 1 -16 -10z"/>
<path d="M10892 13998 c-13 -13 -16 -38 -4 -38 15 0 29 16 29 33 0 20 -8 22
-25 5z"/>
<path d="M8209 13996 c-1 -3 -3 -10 -4 -16 -1 -5 -3 -15 -4 -21 0 -5 -5 -8
-10 -5 -5 3 -8 -8 -7 -24 1 -38 4 -38 17 0 6 17 18 30 26 30 17 0 14 31 -4 38
-7 2 -14 1 -14 -2z"/>
<path d="M5961 13968 c3 -28 -2 -36 -21 -31 -11 3 -20 12 -20 19 0 8 -4 14
-10 14 -5 0 -10 -4 -10 -10 0 -5 0 -13 0 -17 0 -5 6 -8 13 -8 13 -1 11 -26 -3
-35 -11 -7 1 -71 13 -67 6 2 17 13 25 25 13 20 13 22 -2 22 -9 0 -16 5 -16 11
0 5 4 8 9 5 5 -3 11 4 14 15 4 16 11 19 26 14 19 -6 20 -4 10 24 -11 30 -32
44 -28 19z"/>
<path d="M10920 13932 c0 -20 36 -55 52 -50 6 2 4 11 -6 21 -10 9 -14 17 -10
17 3 0 1 7 -6 15 -17 20 -30 19 -30 -3z"/>
<path d="M8248 13912 c-4 -12 1 -18 14 -19 17 -2 18 0 7 15 -8 9 -14 18 -15
20 -1 1 -4 -5 -6 -16z"/>
<path d="M8040 13915 c0 -8 34 -45 42 -45 16 0 7 18 -17 34 -14 9 -25 14 -25
11z"/>
<path d="M8001 13891 c-9 -6 -11 -18 -7 -36 9 -35 28 -27 32 13 4 33 -1 38
-25 23z"/>
<path d="M8120 13885 c0 -8 -5 -15 -11 -15 -5 0 -8 -4 -4 -10 3 -5 14 -2 25 8
24 20 26 32 5 32 -8 0 -15 -7 -15 -15z"/>
<path d="M8204 13875 c-19 -14 -19 -14 2 -15 12 0 21 6 21 15 0 18 1 18 -23 0z"/>
<path d="M5864 13867 c-4 -13 0 -26 14 -40 29 -29 34 -19 12 23 -16 30 -19 32
-26 17z"/>
<path d="M10816 13854 c-3 -9 -6 -25 -6 -37 0 -19 2 -19 15 7 8 15 15 32 15
37 0 15 -17 10 -24 -7z"/>
<path d="M10980 13865 c0 -3 4 -13 10 -23 5 -9 14 -39 19 -67 5 -29 9 -39 10
-23 0 15 6 30 13 34 8 5 6 11 -7 20 -12 9 -16 21 -13 39 4 19 1 25 -13 25 -11
0 -19 -2 -19 -5z"/>
<path d="M5816 13853 c-12 -12 -6 -33 9 -33 8 0 15 6 15 14 0 17 -14 28 -24
19z"/>
<path d="M7958 13853 c7 -3 16 -2 19 1 4 3 -2 6 -13 5 -11 0 -14 -3 -6 -6z"/>
<path d="M11080 13838 c0 -19 2 -20 10 -8 13 19 13 30 0 30 -5 0 -10 -10 -10
-22z"/>
<path d="M7890 13825 c-7 -8 -19 -15 -26 -15 -8 0 -14 -7 -14 -15 0 -8 -8 -15
-17 -16 -11 0 -13 -3 -6 -6 14 -5 113 46 113 59 0 14 -37 9 -50 -7z"/>
<path d="M10870 13815 c0 -14 4 -25 9 -25 5 0 11 11 13 25 4 17 1 25 -8 25 -8
0 -14 -11 -14 -25z"/>
<path d="M5784 13784 c18 -42 18 -54 2 -60 -9 -3 -16 -15 -16 -25 0 -12 5 -16
15 -13 8 4 15 12 15 20 0 7 9 18 20 24 28 15 25 25 -12 51 -29 21 -31 21 -24
3z"/>
<path d="M5860 13780 c0 -5 5 -10 11 -10 5 0 7 5 4 10 -3 6 -8 10 -11 10 -2 0
-4 -4 -4 -10z"/>
<path d="M7936 13775 c-3 -9 1 -18 10 -22 19 -7 39 11 30 26 -10 16 -33 13
-40 -4z"/>
<path d="M10786 13774 c-9 -24 -7 -56 3 -50 11 7 20 66 10 66 -4 0 -10 -7 -13
-16z"/>
<path d="M11102 13765 c0 -16 2 -22 5 -12 2 9 2 23 0 30 -3 6 -5 -1 -5 -18z"/>
<path d="M10830 13731 c0 -17 5 -33 10 -36 6 -4 10 8 10 29 0 20 -4 36 -10 36
-5 0 -10 -13 -10 -29z"/>
<path d="M7873 13734 c15 -8 27 -21 27 -29 0 -19 21 -19 46 0 19 15 19 15 -1
27 -11 7 -38 14 -60 15 l-40 1 28 -14z"/>
<path d="M7747 13734 c-10 -10 53 -64 73 -64 11 0 22 -4 25 -10 8 -13 35 -13
35 0 0 6 -8 14 -17 17 -10 4 -26 15 -35 26 -10 11 -18 16 -18 11 0 -5 -4 -4
-8 2 -9 14 -46 26 -55 18z"/>
<path d="M7706 13694 c-9 -24 -7 -28 9 -14 17 14 20 30 6 30 -5 0 -12 -7 -15
-16z"/>
<path d="M5700 13673 c0 -5 9 -19 20 -33 17 -21 21 -23 30 -10 7 11 4 19 -13
32 -24 19 -37 23 -37 11z"/>
<path d="M10761 13664 c0 -11 3 -14 6 -6 3 7 2 16 -1 19 -3 4 -6 -2 -5 -13z"/>
<path d="M10865 13660 c-7 -11 2 -30 15 -30 4 0 10 6 13 14 6 16 -19 30 -28
16z"/>
<path d="M10793 13653 c-7 -3 -13 -16 -13 -29 0 -14 -11 -35 -25 -48 -19 -18
-25 -33 -24 -62 0 -35 1 -37 11 -17 6 12 20 23 32 25 18 3 22 12 27 68 4 36 6
66 5 66 0 1 -7 -1 -13 -3z"/>
<path d="M11070 13648 c0 -7 5 -20 10 -28 8 -12 10 -9 10 13 0 15 -4 27 -10
27 -5 0 -10 -6 -10 -12z"/>
<path d="M7655 13640 c3 -5 -2 -10 -12 -10 -15 0 -15 -2 -3 -9 8 -6 18 -7 22
-5 12 8 10 34 -3 34 -5 0 -7 -4 -4 -10z"/>
<path d="M7735 13630 c3 -5 13 -10 21 -10 8 0 14 -6 14 -12 0 -9 4 -8 10 2 16
24 12 30 -21 30 -17 0 -28 -4 -24 -10z"/>
<path d="M7817 13633 c-12 -12 -7 -22 8 -17 8 4 15 10 15 15 0 11 -14 12 -23
2z"/>
<path d="M5693 13597 c-22 -9 -32 -27 -15 -27 11 1 46 29 41 34 -2 2 -14 -1
-26 -7z"/>
<path d="M7550 13595 c0 -10 7 -15 18 -13 21 4 19 22 -2 26 -10 2 -16 -3 -16
-13z"/>
<path d="M7680 13601 c0 -9 30 -25 43 -23 4 1 7 -2 7 -8 0 -5 5 -10 10 -10 18
0 10 22 -10 27 -11 3 -20 9 -20 14 0 5 -7 9 -15 9 -8 0 -15 -4 -15 -9z"/>
<path d="M10880 13568 c-7 -18 -15 -36 -17 -39 -2 -4 4 -10 13 -13 27 -11 47
17 39 53 -8 40 -17 39 -35 -1z"/>
<path d="M11081 13543 c-1 -50 2 -63 14 -63 18 0 18 30 0 85 l-13 40 -1 -62z"/>
<path d="M5636 13581 c-8 -12 3 -41 15 -41 5 0 9 11 9 25 0 25 -14 34 -24 16z"/>
<path d="M7612 13568 c5 -15 48 -24 48 -10 0 10 -23 22 -42 22 -5 0 -8 -6 -6
-12z"/>
<path d="M7500 13561 c0 -5 9 -11 20 -14 13 -3 20 0 20 9 0 8 -9 14 -20 14
-11 0 -20 -4 -20 -9z"/>
<path d="M7465 13530 c-16 -17 -16 -20 -3 -15 9 4 19 13 22 21 7 19 2 18 -19
-6z"/>
<path d="M10290 13526 c0 -24 16 -43 27 -32 8 8 -6 56 -17 56 -6 0 -10 -11
-10 -24z"/>
<path d="M11062 13520 c0 -19 2 -27 5 -17 2 9 2 25 0 35 -3 9 -5 1 -5 -18z"/>
<path d="M5605 13530 c-4 -7 -2 -16 6 -21 18 -11 23 -4 11 17 -7 12 -11 13
-17 4z"/>
<path d="M7580 13530 c0 -5 5 -10 11 -10 5 0 7 5 4 10 -3 6 -8 10 -11 10 -2 0
-4 -4 -4 -10z"/>
<path d="M7660 13530 c0 -5 9 -10 20 -10 11 0 20 5 20 10 0 6 -9 10 -20 10
-11 0 -20 -4 -20 -10z"/>
<path d="M10383 13510 c-1 -14 4 -20 18 -20 17 0 18 3 9 20 -6 11 -14 20 -18
20 -4 0 -8 -9 -9 -20z"/>
<path d="M7490 13495 c0 -8 7 -15 15 -15 8 0 15 7 15 15 0 8 -7 15 -15 15 -8
0 -15 -7 -15 -15z"/>
<path d="M7410 13490 c0 -5 4 -10 9 -10 6 0 13 5 16 10 3 6 -1 10 -9 10 -9 0
-16 -4 -16 -10z"/>
<path d="M7573 13483 c-35 -5 -44 -20 -17 -30 16 -6 64 15 64 29 0 4 -3 7 -7
6 -5 0 -23 -3 -40 -5z"/>
<path d="M5575 13471 c-6 -11 9 -23 19 -14 9 9 7 23 -3 23 -6 0 -12 -4 -16 -9z"/>
<path d="M10333 13466 c2 -6 12 -11 22 -11 10 0 20 5 22 11 2 7 -7 12 -22 12
-15 0 -24 -5 -22 -12z"/>
<path d="M10464 13456 c-3 -9 -10 -14 -15 -11 -11 7 -59 -35 -59 -51 0 -15 34
-36 43 -27 3 3 3 18 0 34 -5 25 -2 29 16 29 21 0 40 25 27 37 -3 3 -8 -2 -12
-11z"/>
<path d="M7398 13434 c-33 -18 -35 -29 -7 -44 17 -10 20 -9 18 7 -7 42 30 50
58 14 13 -17 18 -4 5 15 -13 20 -46 23 -74 8z"/>
<path d="M10495 13439 c-4 -6 -4 -13 -1 -16 3 -4 6 0 6 8 0 8 6 4 16 -9 8 -12
12 -26 9 -32 -3 -6 1 -7 9 -4 14 5 13 10 -5 35 -23 32 -25 34 -34 18z"/>
<path d="M10710 13415 c-11 -13 -10 -14 4 -9 12 5 19 0 23 -15 6 -23 33 -29
33 -7 0 16 -26 46 -39 46 -5 0 -14 -7 -21 -15z"/>
<path d="M11096 13407 c3 -10 9 -15 12 -12 3 3 0 11 -7 18 -10 9 -11 8 -5 -6z"/>
<path d="M10806 13394 c-7 -19 2 -37 15 -29 12 8 12 45 0 45 -5 0 -12 -7 -15
-16z"/>
<path d="M10894 13370 c5 -28 4 -30 -21 -28 -14 2 -28 -3 -30 -9 -6 -17 48
-17 71 0 15 11 16 17 5 40 -17 37 -33 34 -25 -3z"/>
<path d="M10984 13325 c-1 -49 3 -75 10 -75 7 0 11 27 12 75 0 47 -4 75 -10
75 -7 0 -11 -29 -12 -75z"/>
<path d="M11050 13360 c0 -18 4 -29 10 -25 6 3 10 15 10 25 0 10 -4 22 -10 25
-6 4 -10 -7 -10 -25z"/>
<path d="M7360 13350 c0 -5 7 -10 15 -10 8 0 15 5 15 10 0 6 -7 10 -15 10 -8
0 -15 -4 -15 -10z"/>
<path d="M10570 13351 c0 -11 26 -22 34 -14 3 3 3 10 0 14 -7 12 -34 11 -34 0z"/>
<path d="M10450 13340 c0 -5 5 -10 11 -10 5 0 7 5 4 10 -3 6 -8 10 -11 10 -2
0 -4 -4 -4 -10z"/>
<path d="M10530 13330 c-11 -7 -12 -12 -3 -21 16 -16 32 -8 24 13 -4 12 -10
15 -21 8z"/>
<path d="M10755 13330 c-3 -5 3 -10 14 -10 12 0 21 5 21 10 0 6 -6 10 -14 10
-8 0 -18 -4 -21 -10z"/>
<path d="M10595 13300 c3 -5 12 -10 20 -10 8 0 17 5 20 10 4 6 -5 10 -20 10
-15 0 -24 -4 -20 -10z"/>
<path d="M7290 13285 c0 -8 5 -15 10 -15 6 0 10 7 10 15 0 8 -4 15 -10 15 -5
0 -10 -7 -10 -15z"/>
<path d="M7340 13265 c0 -10 7 -15 18 -13 21 4 19 22 -2 26 -10 2 -16 -3 -16
-13z"/>
<path d="M10941 13244 c0 -11 3 -14 6 -6 3 7 2 16 -1 19 -3 4 -6 -2 -5 -13z"/>
<path d="M7261 13224 c0 -11 3 -14 6 -6 3 7 2 16 -1 19 -3 4 -6 -2 -5 -13z"/>
<path d="M10972 13170 c0 -19 2 -27 5 -17 2 9 2 25 0 35 -3 9 -5 1 -5 -18z"/>
<path d="M7236 13172 c-3 -6 -2 -13 4 -17 6 -4 7 -12 4 -18 -5 -9 -4 -9 6 0 8
7 9 16 2 28 -6 11 -12 14 -16 7z"/>
<path d="M11010 13142 c0 -5 6 -12 13 -15 9 -3 12 -16 9 -37 -3 -23 -1 -31 7
-26 6 4 11 23 11 43 0 20 -3 33 -7 30 -3 -4 -12 -2 -20 4 -8 7 -13 8 -13 1z"/>
<path d="M8212 13110 c0 -14 2 -19 5 -12 2 6 2 18 0 25 -3 6 -5 1 -5 -13z"/>
<path d="M11000 13074 c0 -8 5 -12 10 -9 6 3 10 10 10 16 0 5 -4 9 -10 9 -5 0
-10 -7 -10 -16z"/>
<path d="M11020 13011 c0 -6 4 -13 10 -16 6 -3 7 1 4 9 -7 18 -14 21 -14 7z"/>
<path d="M8139 13010 c0 -3 -3 -16 -5 -30 -4 -24 -4 -24 13 -8 13 14 15 21 5
30 -7 7 -12 10 -13 8z"/>
<path d="M15550 12996 c0 -22 -45 -47 -59 -33 -8 8 -14 8 -23 -1 -9 -9 -7 -12
10 -12 12 0 22 -4 22 -10 0 -18 28 -11 35 9 3 11 12 22 20 25 17 6 21 36 5 36
-5 0 -10 -6 -10 -14z"/>
<path d="M8096 12934 c-9 -22 -8 -24 8 -18 20 8 29 34 12 34 -8 0 -17 -7 -20
-16z"/>
<path d="M15426 12931 c-9 -14 4 -40 24 -51 17 -9 18 -7 9 22 -5 18 -9 34 -9
35 0 7 -19 2 -24 -6z"/>
<path d="M8036 12865 c-3 -9 0 -15 9 -15 8 0 15 7 15 15 0 8 -4 15 -9 15 -5 0
-11 -7 -15 -15z"/>
<path d="M8092 12850 c0 -14 2 -19 5 -12 2 6 2 18 0 25 -3 6 -5 1 -5 -13z"/>
<path d="M15338 12853 c-10 -2 -18 -8 -18 -13 0 -13 -49 -60 -62 -60 -9 0 -8
-4 1 -12 10 -11 17 -8 34 13 12 14 34 33 50 42 15 10 27 22 27 27 0 10 -3 11
-32 3z"/>
<path d="M15419 12844 c-10 -13 -10 -17 1 -24 17 -10 30 -4 30 15 0 22 -16 26
-31 9z"/>
<path d="M7980 12825 c-13 -15 -12 -15 33 -29 7 -2 12 6 12 20 0 28 -25 33
-45 9z"/>
<path d="M7890 12780 c-12 -8 -9 -10 13 -10 16 0 26 4 22 10 -8 12 -16 12 -35
0z"/>
<path d="M8041 12781 c-7 -5 -12 -13 -10 -18 2 -6 13 -2 23 8 20 19 12 26 -13
10z"/>
<path d="M7830 12750 c0 -5 7 -10 16 -10 8 0 12 5 9 10 -3 6 -10 10 -16 10 -5
0 -9 -4 -9 -10z"/>
<path d="M15335 12740 c-15 -16 -16 -23 -7 -29 14 -8 7 -61 -8 -61 -4 0 -7
-11 -7 -25 0 -37 9 -30 36 25 14 29 29 47 35 43 6 -4 4 2 -5 13 -10 10 -19 27
-20 38 -4 17 -5 17 -24 -4z"/>
<path d="M15197 12733 c-33 -17 -26 -34 13 -31 23 2 27 5 18 16 -6 7 -7 12 -2
10 5 -2 10 1 12 7 5 15 -10 14 -41 -2z"/>
<path d="M8025 12730 c-3 -5 -1 -10 4 -10 6 0 11 5 11 10 0 6 -2 10 -4 10 -3
0 -8 -4 -11 -10z"/>
<path d="M7804 12688 c-4 -5 0 -14 7 -19 20 -12 26 -11 26 6 0 18 -24 28 -33
13z"/>
<path d="M7960 12676 c0 -9 5 -16 11 -16 5 0 7 -4 4 -10 -3 -6 1 -7 10 -4 9 4
15 14 13 23 -4 21 -38 27 -38 7z"/>
<path d="M7917 12674 c-12 -12 -8 -24 7 -24 8 0 18 5 22 12 4 6 3 8 -4 4 -5
-3 -12 -1 -14 5 -2 5 -7 7 -11 3z"/>
<path d="M14216 12622 c-4 -13 -5 -26 -2 -29 10 -11 18 4 14 29 l-4 23 -8 -23z"/>
<path d="M15087 12633 c-4 -3 -7 -11 -7 -17 0 -6 5 -5 12 2 6 6 9 14 7 17 -3
3 -9 2 -12 -2z"/>
<path d="M7870 12615 c0 -8 0 -18 0 -22 0 -9 20 -12 33 -6 9 5 -11 43 -23 43
-6 0 -10 -7 -10 -15z"/>
<path d="M14255 12618 c-4 -10 -4 -26 0 -35 8 -17 8 -17 12 0 3 9 3 25 0 35
-4 16 -4 16 -12 0z"/>
<path d="M7047 12614 c-14 -14 -7 -64 8 -64 8 0 15 -8 15 -17 0 -11 3 -14 8
-8 4 6 18 10 32 9 24 -1 24 -1 -6 25 -17 14 -35 34 -41 44 -5 10 -12 14 -16
11z"/>
<path d="M7946 12604 c-20 -19 -20 -24 -1 -24 8 0 19 9 25 20 13 24 -2 27 -24
4z"/>
<path d="M15166 12584 c-4 -16 -17 -29 -36 -36 -31 -10 -32 -28 -1 -28 22 0
61 40 61 63 0 27 -17 28 -24 1z"/>
<path d="M7776 12577 c-5 -15 -6 -31 -2 -34 11 -11 18 5 14 34 l-4 28 -8 -28z"/>
<path d="M14996 12591 c-3 -5 3 -11 15 -14 16 -4 18 -3 8 9 -13 16 -16 17 -23
5z"/>
<path d="M7826 12563 c-4 -4 20 -65 31 -82 2 -3 11 3 20 12 15 15 14 18 -15
45 -17 16 -33 27 -36 25z"/>
<path d="M8528 12553 c7 -3 16 -2 19 1 4 3 -2 6 -13 5 -11 0 -14 -3 -6 -6z"/>
<path d="M7011 12536 c-8 -9 -11 -19 -7 -23 9 -9 29 13 24 27 -2 8 -8 7 -17
-4z"/>
<path d="M14925 12540 c-3 -6 2 -13 12 -17 10 -3 22 -12 26 -20 12 -20 49 -17
45 5 -3 11 -12 16 -26 15 -13 -2 -25 4 -28 12 -7 17 -20 20 -29 5z"/>
<path d="M15020 12540 c0 -5 7 -10 15 -10 8 0 15 5 15 10 0 6 -7 10 -15 10 -8
0 -15 -4 -15 -10z"/>
<path d="M8590 12526 c0 -10 51 -60 74 -71 23 -12 23 -12 13 16 -6 15 -13 27
-16 27 -21 -2 -31 4 -31 17 0 8 -9 15 -20 15 -11 0 -20 -2 -20 -4z"/>
<path d="M14182 12518 c-22 -22 -14 -43 17 -45 33 -2 56 19 47 42 -6 18 -47
20 -64 3z"/>
<path d="M15203 12501 c-12 -10 -19 -21 -16 -25 4 -4 6 -22 5 -41 -2 -19 2
-35 8 -35 5 0 10 10 10 23 0 13 13 36 30 52 16 15 27 32 24 37 -9 14 -38 8
-61 -11z"/>
<path d="M7780 12496 c0 -20 19 -31 32 -18 7 7 3 14 -11 21 -17 10 -21 9 -21
-3z"/>
<path d="M8507 12503 c-11 -10 24 -43 45 -43 15 0 18 -5 13 -19 -5 -17 -2 -19
22 -15 15 3 29 7 31 9 9 8 -11 25 -29 25 -10 0 -19 4 -19 9 0 5 -9 13 -20 16
-11 4 -18 11 -15 16 7 10 -18 13 -28 2z"/>
<path d="M8680 12491 c0 -5 9 -7 20 -4 11 3 20 7 20 9 0 2 -9 4 -20 4 -11 0
-20 -4 -20 -9z"/>
<path d="M8180 12469 c-30 -5 -28 -6 18 -6 28 0 52 1 52 2 0 8 -39 10 -70 4z"/>
<path d="M8735 12470 c-7 -11 30 -32 39 -23 11 11 6 21 -14 26 -11 3 -22 1
-25 -3z"/>
<path d="M14133 12463 c-15 -6 -17 -43 -3 -43 12 0 24 25 18 38 -1 5 -9 7 -15
5z"/>
<path d="M14260 12450 c0 -11 4 -20 9 -20 5 0 14 -12 19 -27 l10 -28 1 25 c1
39 -10 70 -25 70 -8 0 -14 -9 -14 -20z"/>
<path d="M14820 12460 c0 -3 6 -13 13 -22 14 -19 60 -7 52 14 -5 13 -65 21
-65 8z"/>
<path d="M8270 12451 c0 -6 -19 -14 -42 -19 l-43 -10 58 0 c31 1 57 2 57 3 0
2 -3 10 -6 19 -7 17 -24 22 -24 7z"/>
<path d="M14785 12440 c-3 -5 3 -10 15 -10 12 0 18 5 15 10 -3 6 -10 10 -15
10 -5 0 -12 -4 -15 -10z"/>
<path d="M8348 12433 c7 -3 16 -2 19 1 4 3 -2 6 -13 5 -11 0 -14 -3 -6 -6z"/>
<path d="M15088 12405 c-6 -14 -8 -28 -5 -32 10 -9 49 35 42 47 -11 17 -25 11
-37 -15z"/>
<path d="M14740 12411 c0 -5 9 -11 20 -14 11 -3 19 -11 18 -17 -2 -7 3 -15 10
-17 17 -6 15 25 -2 43 -16 15 -46 19 -46 5z"/>
<path d="M8634 12401 c7 -10 31 -9 42 2 4 4 -5 7 -20 7 -15 0 -25 -4 -22 -9z"/>
<path d="M8710 12400 c0 -5 16 -10 36 -10 19 0 33 4 30 8 -7 12 -66 14 -66 2z"/>
<path d="M8916 12395 c4 -9 0 -15 -10 -15 -9 0 -16 -4 -16 -10 0 -5 33 -8 78
-6 99 4 100 5 82 16 -8 5 -24 7 -36 4 -12 -3 -26 1 -33 10 -18 21 -73 22 -65
1z"/>
<path d="M15148 12379 c-11 -6 -18 -22 -18 -38 0 -44 -50 -80 -64 -46 -3 8
-10 15 -16 15 -13 0 -13 -43 1 -57 6 -6 14 -26 18 -45 l8 -33 14 45 c7 25 27
60 44 78 60 67 68 113 13 81z"/>
<path d="M14060 12369 c0 -5 5 -7 10 -4 6 3 10 8 10 11 0 2 -4 4 -10 4 -5 0
-10 -5 -10 -11z"/>
<path d="M14685 12359 c-4 -6 2 -13 14 -16 12 -3 21 -12 21 -20 0 -19 44 -13
48 7 1 8 -10 21 -25 28 -33 15 -50 15 -58 1z"/>
<path d="M9102 12340 c14 -4 31 -11 36 -14 5 -3 15 1 22 9 11 13 6 15 -36 14
-41 -1 -45 -2 -22 -9z"/>
<path d="M14015 12321 c-3 -5 6 -22 20 -38 21 -24 26 -26 35 -13 7 11 6 16 -4
18 -8 2 -16 12 -19 23 -5 20 -22 25 -32 10z"/>
<path d="M14620 12322 c0 -14 11 -21 26 -15 21 8 17 23 -6 23 -11 0 -20 -4
-20 -8z"/>
<path d="M9205 12310 c3 -5 20 -10 36 -10 18 0 28 4 24 10 -3 6 -20 10 -36 10
-18 0 -28 -4 -24 -10z"/>
<path d="M14569 12280 c-13 -10 -19 -19 -12 -20 11 0 43 26 43 36 0 8 -8 4
-31 -16z"/>
<path d="M14676 12292 c7 -10 -41 -43 -56 -39 -10 3 -16 -3 -17 -14 -2 -25 37
-25 59 0 8 10 22 21 29 24 11 4 11 7 -2 20 -9 8 -14 12 -13 9z"/>
<path d="M9335 12280 c3 -5 10 -10 16 -10 5 0 9 5 9 10 0 6 -7 10 -16 10 -8 0
-12 -4 -9 -10z"/>
<path d="M14780 12265 c0 -8 5 -15 10 -15 6 0 10 7 10 15 0 8 -4 15 -10 15 -5
0 -10 -7 -10 -15z"/>
<path d="M13954 12256 c-23 -18 -19 -22 28 -31 30 -6 39 -4 44 9 8 20 6 21
-27 29 -15 4 -33 1 -45 -7z"/>
<path d="M9456 12248 c7 -11 34 -10 34 1 0 6 -9 9 -19 8 -11 0 -17 -5 -15 -9z"/>
<path d="M14503 12234 c-7 -18 11 -39 26 -30 17 11 13 46 -4 46 -9 0 -18 -7
-22 -16z"/>
<path d="M14735 12225 c-16 -13 -26 -28 -22 -32 4 -4 19 5 33 21 34 35 26 43
-11 11z"/>
<path d="M9572 12206 c13 -29 38 -42 38 -21 0 8 -8 15 -17 15 -15 0 -14 2 3
15 18 14 18 14 -8 15 -26 0 -27 -2 -16 -24z"/>
<path d="M13900 12210 c-7 -13 -7 -20 -1 -20 6 0 15 9 21 20 7 13 7 20 1 20
-6 0 -15 -9 -21 -20z"/>
<path d="M14321 12204 c0 -11 3 -14 6 -6 3 7 2 16 -1 19 -3 4 -6 -2 -5 -13z"/>
<path d="M9654 12191 c3 -5 14 -11 25 -14 14 -3 18 -1 14 9 -3 8 -14 14 -25
14 -10 0 -17 -4 -14 -9z"/>
<path d="M14800 12175 c0 -8 7 -15 15 -15 8 0 15 7 15 15 0 8 -7 15 -15 15 -8
0 -15 -7 -15 -15z"/>
<path d="M15040 12164 c0 -8 5 -12 10 -9 6 3 10 10 10 16 0 5 -4 9 -10 9 -5 0
-10 -7 -10 -16z"/>
<path d="M14383 12163 c9 -2 23 -2 30 0 6 3 -1 5 -18 5 -16 0 -22 -2 -12 -5z"/>
<path d="M9775 12141 c-2 -5 4 -11 15 -14 11 -3 20 -2 20 3 0 12 -28 21 -35
11z"/>
<path d="M14930 12130 c0 -5 7 -10 16 -10 8 0 12 5 9 10 -3 6 -10 10 -16 10
-5 0 -9 -4 -9 -10z"/>
<path d="M13773 12123 c-20 -7 -15 -23 6 -23 10 0 21 7 25 15 5 15 -7 18 -31
8z"/>
<path d="M14840 12101 c0 -20 9 -36 26 -50 17 -13 27 -32 28 -49 1 -19 7 -29
18 -29 14 -1 17 5 15 32 -1 18 -6 33 -11 32 -5 -1 -15 8 -21 20 -7 13 -16 20
-21 15 -4 -4 -3 0 4 9 10 14 8 19 -13 33 -25 16 -25 16 -25 -13z"/>
<path d="M9708 12109 c-20 -11 -24 -34 -8 -44 6 -4 17 -2 24 4 11 9 18 8 29
-4 17 -17 52 -21 42 -5 -4 6 6 10 24 10 16 0 32 -6 35 -12 3 -7 3 1 -1 17 -7
36 -12 43 -21 30 -4 -6 -14 -12 -22 -14 -8 -2 -23 -6 -32 -8 -10 -3 -18 0 -18
6 0 7 5 9 13 5 8 -5 8 -2 -2 9 -15 19 -38 21 -63 6z"/>
<path d="M14959 12073 c0 -5 -3 -19 -5 -33 -3 -17 -1 -21 6 -14 14 14 21 54 9
54 -5 0 -9 -3 -10 -7z"/>
<path d="M9821 12050 c-17 -10 -7 -40 14 -40 8 0 15 -7 15 -15 0 -8 -4 -15 -9
-15 -5 0 -12 -7 -15 -16 -4 -11 -1 -15 14 -12 12 2 19 7 18 12 -2 5 8 13 21
18 23 8 23 9 6 28 -9 10 -14 24 -9 31 4 8 3 10 -5 5 -6 -4 -17 -3 -24 3 -7 5
-18 6 -26 1z"/>
<path d="M13633 12043 c-24 -8 -43 -19 -43 -24 0 -5 -18 -12 -40 -15 -55 -9
-61 -24 -9 -24 30 0 47 6 60 22 11 11 19 18 19 14 0 -3 14 0 30 9 17 9 30 20
30 25 0 6 -1 9 -2 9 -2 -1 -22 -8 -45 -16z"/>
<path d="M14802 12019 c-1 -16 -1 -29 2 -29 7 0 13 50 7 55 -4 2 -8 -10 -9
-26z"/>
<path d="M9755 12029 c-4 -6 -5 -12 -2 -15 2 -3 7 2 10 11 7 17 1 20 -8 4z"/>
<path d="M13750 12030 c0 -5 11 -10 25 -10 14 0 25 5 25 10 0 6 -11 10 -25 10
-14 0 -25 -4 -25 -10z"/>
<path d="M9775 12000 c3 -6 2 -10 -4 -10 -14 0 23 -60 56 -92 39 -36 75 -43
93 -18 8 11 20 20 27 20 16 0 26 17 18 30 -4 6 -15 0 -27 -15 -22 -28 -49 -32
-68 -10 -7 8 -18 15 -25 15 -8 0 -22 18 -32 40 -10 21 -24 42 -31 45 -7 2 -10
0 -7 -5z"/>
<path d="M13590 11965 c0 -8 7 -15 15 -15 8 0 15 7 15 15 0 8 -7 15 -15 15 -8
0 -15 -7 -15 -15z"/>
<path d="M13720 11965 c0 -8 5 -15 10 -15 6 0 10 7 10 15 0 8 -4 15 -10 15 -5
0 -10 -7 -10 -15z"/>
<path d="M13810 11965 c0 -9 5 -15 11 -13 6 2 11 8 11 13 0 5 -5 11 -11 13 -6
2 -11 -4 -11 -13z"/>
<path d="M14840 11964 c0 -9 5 -14 12 -12 18 6 21 28 4 28 -9 0 -16 -7 -16
-16z"/>
<path d="M13435 11959 c-16 -6 -14 -8 13 -8 33 -1 41 4 20 12 -7 2 -22 1 -33
-4z"/>
<path d="M14890 11949 c0 -5 5 -7 10 -4 6 3 10 8 10 11 0 2 -4 4 -10 4 -5 0
-10 -5 -10 -11z"/>
<path d="M9884 11936 c-10 -8 -16 -18 -11 -22 4 -4 7 -3 7 3 0 6 9 9 20 6 14
-4 20 0 20 11 0 20 -10 20 -36 2z"/>
<path d="M14800 11941 c0 -6 5 -13 10 -16 6 -3 10 1 10 9 0 9 -4 16 -10 16 -5
0 -10 -4 -10 -9z"/>
<path d="M13328 11923 c6 -2 18 -2 25 0 6 3 1 5 -13 5 -14 0 -19 -2 -12 -5z"/>
<path d="M14848 11912 c-10 -2 -18 -12 -18 -23 0 -11 -7 -22 -15 -25 -14 -6
-22 -34 -9 -34 11 0 70 78 63 83 -2 2 -12 2 -21 -1z"/>
<path d="M13211 11894 c-9 -7 -38 -15 -65 -19 -30 -5 -43 -11 -35 -16 7 -4 17
-5 21 -3 4 3 5 -3 1 -13 -5 -15 -2 -14 19 5 13 12 36 22 51 22 30 0 77 19 77
31 0 12 -49 7 -69 -7z"/>
<path d="M14560 11900 c0 -5 4 -10 9 -10 6 0 13 5 16 10 3 6 -1 10 -9 10 -9 0
-16 -4 -16 -10z"/>
<path d="M14715 11878 c-17 -52 -7 -60 35 -24 23 19 26 25 14 30 -25 10 -44 7
-49 -6z"/>
<path d="M12938 11833 c12 -2 30 -2 40 0 9 3 -1 5 -23 4 -22 0 -30 -2 -17 -4z"/>
<path d="M13225 11826 c-18 -13 -18 -14 2 -20 20 -7 80 10 71 20 -13 12 -56
13 -73 0z"/>
<path d="M14603 11823 c-7 -2 -13 -9 -13 -14 0 -15 53 -6 58 9 4 12 -21 15
-45 5z"/>
<path d="M12620 11800 c0 -5 -7 -7 -15 -4 -10 4 -15 0 -15 -10 0 -24 31 -32
45 -13 20 28 55 21 66 -13 7 -17 18 -30 28 -30 25 0 23 36 -2 48 -18 9 -19 11
-4 11 9 1 17 6 17 11 0 6 -27 10 -60 10 -33 0 -60 -4 -60 -10z"/>
<path d="M14743 11802 c-13 -2 -23 -8 -23 -13 0 -11 17 -11 44 0 24 9 9 18
-21 13z"/>
<path d="M12905 11785 l-30 -13 43 -1 c31 -1 42 3 42 14 0 18 -16 18 -55 0z"/>
<path d="M13300 11780 c0 -10 41 -31 50 -25 23 14 10 35 -20 33 -16 -1 -30 -5
-30 -8z"/>
<path d="M13185 11760 c-4 -6 11 -10 36 -10 48 0 49 4 2 13 -18 4 -35 2 -38
-3z"/>
<path d="M13060 11731 c0 -6 10 -11 23 -12 21 0 21 -1 2 -10 -17 -8 -16 -9 8
-6 15 3 27 0 27 -5 0 -5 5 -8 12 -6 12 4 21 38 10 38 -4 1 -24 3 -44 6 -24 4
-38 2 -38 -5z"/>
<path d="M14688 11733 c7 -3 16 -2 19 1 4 3 -2 6 -13 5 -11 0 -14 -3 -6 -6z"/>
<path d="M14583 11710 c15 -12 35 -19 43 -16 28 11 9 31 -32 34 l-39 3 28 -21z"/>
<path d="M6830 11705 c0 -8 7 -15 16 -15 14 0 14 3 4 15 -7 8 -14 15 -16 15
-2 0 -4 -7 -4 -15z"/>
<path d="M12781 11711 c-11 -7 -9 -10 8 -16 25 -8 36 -2 26 14 -8 13 -15 14
-34 2z"/>
<path d="M12884 11698 c-5 -9 -18 -18 -29 -20 -19 -5 -19 -5 -2 -13 22 -9 52
15 45 36 -3 10 -7 10 -14 -3z"/>
<path d="M6896 11688 c-17 -10 -16 -12 14 -24 40 -17 40 -17 40 1 0 8 -9 15
-21 15 -11 0 -17 5 -14 10 8 12 5 12 -19 -2z"/>
<path d="M6996 11691 c-4 -5 -2 -12 3 -15 5 -4 12 -2 15 3 4 5 2 12 -3 15 -5
4 -12 2 -15 -3z"/>
<path d="M14210 11670 c-11 -7 -8 -10 16 -10 16 0 35 -5 42 -12 9 -9 12 -7 12
10 0 17 -6 22 -27 22 -16 0 -35 -5 -43 -10z"/>
<path d="M14320 11664 c0 -10 7 -14 22 -12 32 5 35 28 4 28 -17 0 -26 -5 -26
-16z"/>
<path d="M14560 11670 c0 -5 7 -7 15 -4 8 4 15 8 15 10 0 2 -7 4 -15 4 -8 0
-15 -4 -15 -10z"/>
<path d="M13238 11663 c18 -2 45 -2 60 0 15 2 0 4 -33 4 -33 0 -45 -2 -27 -4z"/>
<path d="M13845 11660 c-4 -6 10 -10 34 -10 23 0 41 5 41 10 0 6 -15 10 -34
10 -19 0 -38 -4 -41 -10z"/>
<path d="M12997 11636 c-25 -23 -27 -46 -2 -26 6 5 20 11 31 13 27 4 45 17 39
28 -11 16 -41 10 -68 -15z"/>
<path d="M14079 11647 c-18 -14 -14 -37 6 -37 16 0 38 34 28 44 -9 9 -16 7
-34 -7z"/>
<path d="M14475 11650 c-11 -4 -33 -14 -50 -21 -16 -6 -38 -11 -49 -10 -11 2
-16 -2 -12 -8 4 -6 14 -11 22 -11 20 0 101 37 109 50 7 12 7 12 -20 0z"/>
<path d="M7058 11639 c-27 -15 -21 -31 10 -27 15 2 27 9 27 17 0 19 -16 23
-37 10z"/>
<path d="M13138 11633 c6 -2 18 -2 25 0 6 3 1 5 -13 5 -14 0 -19 -2 -12 -5z"/>
<path d="M7123 11605 c-10 -23 -9 -25 15 -24 15 0 35 4 45 8 16 6 16 9 5 18
-30 24 -53 23 -65 -2z"/>
<path d="M13077 11600 c-6 -22 0 -25 22 -11 7 5 10 14 7 20 -11 17 -23 13 -29
-9z"/>
<path d="M13750 11610 c0 -5 18 -10 40 -10 22 0 40 5 40 10 0 6 -18 10 -40 10
-22 0 -40 -4 -40 -10z"/>
<path d="M11390 11579 c0 -17 4 -28 10 -24 6 3 10 17 10 31 0 13 -4 24 -10 24
-5 0 -10 -14 -10 -31z"/>
<path d="M13223 11603 c9 -2 23 -2 30 0 6 3 -1 5 -18 5 -16 0 -22 -2 -12 -5z"/>
<path d="M14200 11603 c0 -22 132 -33 145 -13 4 6 -6 10 -23 10 -16 0 -50 3
-76 6 -29 4 -46 3 -46 -3z"/>
<path d="M13360 11575 c0 -8 5 -15 10 -15 6 0 10 7 10 15 0 8 -4 15 -10 15 -5
0 -10 -7 -10 -15z"/>
<path d="M11420 11571 c0 -14 18 -23 31 -15 8 4 7 9 -2 15 -18 11 -29 11 -29
0z"/>
<path d="M13845 11571 c-3 -6 4 -8 16 -6 30 6 37 15 11 15 -11 0 -23 -4 -27
-9z"/>
<path d="M7253 11563 c-21 -8 -15 -20 10 -17 12 1 28 3 35 3 6 1 12 6 12 11 0
10 -35 12 -57 3z"/>
<path d="M13160 11561 c0 -14 18 -23 31 -15 8 4 7 9 -2 15 -18 11 -29 11 -29
0z"/>
<path d="M14139 11559 c-10 -6 -4 -9 19 -9 17 0 32 2 32 4 0 9 -39 13 -51 5z"/>
<path d="M7208 11553 c7 -3 16 -2 19 1 4 3 -2 6 -13 5 -11 0 -14 -3 -6 -6z"/>
<path d="M13236 11535 c4 -8 12 -15 20 -15 20 0 17 7 -6 20 -16 9 -18 8 -14
-5z"/>
<path d="M13785 11540 c3 -5 12 -10 20 -10 8 0 17 5 20 10 4 6 -5 10 -20 10
-15 0 -24 -4 -20 -10z"/>
<path d="M7310 11525 c0 -9 6 -12 15 -9 8 4 12 10 9 15 -8 14 -24 10 -24 -6z"/>
<path d="M11460 11520 c-6 -11 -17 -20 -25 -20 -20 0 -19 -19 0 -26 9 -4 15
-19 15 -38 l0 -31 13 25 c9 16 10 27 3 32 -20 13 -15 38 9 38 23 0 50 -30 56
-65 3 -12 14 -21 27 -23 16 -3 20 0 16 12 -3 9 -12 16 -20 16 -10 0 -13 7 -8
26 5 20 2 26 -15 31 -11 3 -21 9 -21 14 0 4 -9 13 -20 19 -15 8 -21 6 -30 -10z"/>
<path d="M7395 11500 c-4 -6 3 -10 14 -10 25 0 27 6 6 13 -8 4 -17 2 -20 -3z"/>
<path d="M7453 11503 c9 -2 25 -2 35 0 9 3 1 5 -18 5 -19 0 -27 -2 -17 -5z"/>
<path d="M13500 11500 c0 -6 27 -10 63 -10 44 0 58 3 47 10 -20 13 -110 13
-110 0z"/>
<path d="M7505 11470 c-3 -5 1 -10 9 -10 9 0 16 5 16 10 0 6 -4 10 -9 10 -6 0
-13 -4 -16 -10z"/>
<path d="M7565 11440 c-4 -6 3 -10 14 -10 25 0 27 6 6 13 -8 4 -17 2 -20 -3z"/>
<path d="M7646 11438 c12 -7 19 -19 17 -25 -3 -9 10 -13 46 -13 41 0 49 -3 44
-15 -3 -9 -2 -15 3 -14 5 1 17 -1 27 -6 29 -12 46 11 21 29 -26 20 -101 47
-144 52 -32 4 -33 4 -14 -8z"/>
<path d="M11493 11393 c-15 -5 -18 -33 -4 -33 5 0 11 9 14 20 3 11 4 20 4 19
-1 0 -8 -3 -14 -6z"/>
<path d="M7853 11371 c1 -15 10 -20 39 -23 21 -2 38 -3 38 -2 0 4 -67 44 -73
44 -3 0 -5 -9 -4 -19z"/>
<path d="M11577 11374 c-9 -10 4 -34 19 -34 8 0 14 9 14 20 0 19 -19 27 -33
14z"/>
<path d="M7950 11354 c0 -20 24 -44 45 -44 32 0 32 13 0 34 -24 16 -45 21 -45
10z"/>
<path d="M11670 11336 c0 -7 -7 -17 -16 -20 -8 -3 -12 -11 -9 -17 5 -8 10 -8
18 0 6 6 19 11 29 11 24 0 23 17 -2 30 -16 8 -20 8 -20 -4z"/>
<path d="M11515 11311 c-3 -5 -1 -12 5 -16 5 -3 10 1 10 9 0 18 -6 21 -15 7z"/>
<path d="M8070 11300 c0 -5 -3 -9 -7 -9 -26 4 -33 -5 -8 -10 35 -8 83 8 63 21
-18 11 -48 10 -48 -2z"/>
<path d="M8190 11281 c-6 -12 -23 -21 -43 -23 -25 -3 -28 -6 -14 -12 18 -9
107 13 107 26 0 4 -9 12 -20 18 -15 8 -21 6 -30 -9z"/>
<path d="M11561 11291 c-33 -9 -39 -31 -9 -30 26 0 71 17 50 18 -7 1 -10 6 -7
11 7 11 2 11 -34 1z"/>
<path d="M11730 11275 c0 -16 6 -25 15 -25 8 0 15 -9 15 -20 0 -11 7 -20 15
-20 15 0 17 20 2 31 -5 3 -9 12 -10 20 -7 41 -37 53 -37 14z"/>
<path d="M8295 11260 c-3 -5 3 -10 14 -10 12 0 21 5 21 10 0 6 -6 10 -14 10
-8 0 -18 -4 -21 -10z"/>
<path d="M11620 11239 c7 -11 14 -18 17 -15 8 8 -5 36 -17 36 -7 0 -7 -6 0
-21z"/>
<path d="M8381 11227 c14 -14 72 -10 63 4 -3 5 -21 9 -40 9 -28 0 -32 -2 -23
-13z"/>
<path d="M8225 11220 c3 -5 12 -7 20 -3 21 7 19 13 -6 13 -11 0 -18 -4 -14
-10z"/>
<path d="M11700 11210 c0 -5 5 -10 10 -10 6 0 10 5 10 10 0 6 -4 10 -10 10 -5
0 -10 -4 -10 -10z"/>
<path d="M8387 11202 c-30 -4 -27 -22 4 -22 10 0 19 -4 19 -9 0 -12 48 -23 63
-14 7 4 12 17 12 28 1 21 -25 25 -98 17z"/>
<path d="M8548 11203 c12 -2 22 -9 22 -14 0 -6 5 -7 10 -4 19 12 10 21 -22 22
-20 0 -24 -1 -10 -4z"/>
<path d="M11570 11184 c0 -14 4 -22 10 -19 6 3 10 13 10 21 0 9 5 12 13 8 6
-4 8 -3 4 1 -17 19 -37 13 -37 -11z"/>
<path d="M11728 11178 c-7 -18 9 -58 22 -58 15 0 9 62 -6 67 -6 2 -14 -2 -16
-9z"/>
<path d="M11636 11173 c-13 -14 -5 -33 14 -33 11 0 20 6 20 14 0 15 -24 28
-34 19z"/>
<path d="M15604 11172 c-6 -4 -15 -18 -19 -32 l-7 -25 22 21 c22 22 25 50 4
36z"/>
<path d="M8533 11151 c-12 -10 -19 -21 -16 -25 3 -3 11 -2 17 3 6 5 22 11 35
13 14 1 26 9 29 16 6 19 -40 14 -65 -7z"/>
<path d="M8756 11157 c3 -10 9 -15 12 -12 3 3 0 11 -7 18 -10 9 -11 8 -5 -6z"/>
<path d="M11797 11140 c-6 -23 19 -48 34 -33 12 12 3 40 -16 47 -7 2 -15 -4
-18 -14z"/>
<path d="M8860 11140 c0 -5 5 -10 10 -10 6 0 10 5 10 10 0 6 -4 10 -10 10 -5
0 -10 -4 -10 -10z"/>
<path d="M11600 11119 c0 -11 5 -17 10 -14 6 3 10 13 10 21 0 8 -4 14 -10 14
-5 0 -10 -9 -10 -21z"/>
<path d="M8790 11120 c0 -5 5 -10 11 -10 5 0 7 5 4 10 -3 6 -8 10 -11 10 -2 0
-4 -4 -4 -10z"/>
<path d="M8894 11106 c-16 -12 -16 -15 -4 -19 31 -10 69 -14 67 -6 -1 4 7 15
18 23 19 15 18 15 -21 16 -22 0 -49 -6 -60 -14z"/>
<path d="M9015 11110 c3 -5 17 -10 31 -10 13 0 24 5 24 10 0 6 -14 10 -31 10
-17 0 -28 -4 -24 -10z"/>
<path d="M15510 11085 c-57 -45 -95 -75 -120 -97 -11 -10 -20 -15 -20 -10 -1
4 -7 -4 -14 -18 -8 -14 -12 -28 -9 -33 7 -11 43 22 43 40 0 7 9 13 20 13 10 0
24 9 30 20 6 11 17 20 25 20 8 0 19 9 25 19 5 11 20 21 32 23 16 2 22 9 20 21
-2 9 2 16 9 15 6 -2 14 3 16 10 8 20 -10 13 -57 -23z"/>
<path d="M11764 11086 c-7 -31 3 -66 19 -60 7 2 13 22 15 44 2 30 -1 40 -13
40 -8 0 -17 -11 -21 -24z"/>
<path d="M11630 11073 c1 -25 2 -26 14 -11 7 10 15 15 18 12 3 -2 8 2 11 11 5
11 0 15 -18 15 -21 0 -25 -5 -25 -27z"/>
<path d="M9310 11081 c-8 -3 -15 -13 -15 -21 0 -11 -12 -15 -44 -15 -29 0 -46
-5 -49 -14 -4 -11 4 -13 39 -8 23 3 51 1 61 -4 20 -11 14 -39 -8 -39 -12 0
-12 -3 -2 -13 7 -8 18 -14 24 -14 7 0 10 6 7 14 -3 7 1 13 9 13 8 0 22 8 31
18 16 18 15 18 -13 14 -34 -5 -50 18 -30 43 15 18 9 34 -10 26z"/>
<path d="M8695 11070 c28 -12 55 -12 55 0 0 6 -17 10 -37 9 -31 0 -34 -2 -18
-9z"/>
<path d="M8773 11063 c-18 -7 -16 -23 2 -23 8 0 15 7 15 15 0 8 -1 15 -2 14
-2 0 -9 -3 -15 -6z"/>
<path d="M11849 11063 c-1 -7 -2 -17 -3 -23 0 -5 -10 -16 -21 -24 -11 -8 -17
-17 -14 -21 4 -3 19 5 34 18 23 20 26 27 17 43 -7 11 -12 14 -13 7z"/>
<path d="M8837 11030 c16 -14 30 -18 57 -13 21 3 36 11 36 19 0 10 -15 14 -57
14 l-57 0 21 -20z"/>
<path d="M9143 11012 c-29 -4 -30 -22 -3 -22 11 0 23 -7 26 -15 6 -15 34 -21
34 -7 0 12 -20 38 -21 27 0 -5 -3 -3 -7 5 -4 9 -17 14 -29 12z"/>
<path d="M11660 10999 c0 -5 5 -7 10 -4 6 3 10 8 10 11 0 2 -4 4 -10 4 -5 0
-10 -5 -10 -11z"/>
<path d="M9423 10988 c-17 -28 -11 -44 18 -55 17 -7 28 -16 25 -22 -4 -5 -2
-12 4 -16 6 -4 10 5 10 20 0 14 -7 28 -15 31 -8 4 -15 17 -15 30 0 26 -14 32
-27 12z"/>
<path d="M11699 10998 c0 -2 -3 -16 -5 -33 -5 -29 -5 -29 15 -11 25 22 27 46
6 46 -8 0 -15 -1 -16 -2z"/>
<path d="M8900 10981 c0 -9 41 -23 48 -16 2 2 1 8 -3 14 -8 13 -45 15 -45 2z"/>
<path d="M9052 10983 c-8 -3 -5 -10 10 -23 17 -13 25 -15 30 -7 19 30 -1 46
-40 30z"/>
<path d="M11765 10981 c-3 -5 2 -11 10 -15 8 -3 17 -1 20 3 3 5 -2 11 -10 15
-8 3 -17 1 -20 -3z"/>
<path d="M11885 10960 c-3 -5 -1 -10 4 -10 6 0 11 5 11 10 0 6 -2 10 -4 10 -3
0 -8 -4 -11 -10z"/>
<path d="M15419 10938 c-13 -18 -29 -37 -36 -41 -16 -10 -17 -33 -3 -42 6 -4
9 -1 8 7 -2 7 3 12 10 10 8 -1 11 2 7 8 -3 5 -1 10 4 10 6 0 11 6 11 14 0 7
10 20 23 29 16 11 19 18 11 27 -9 9 -17 3 -35 -22z"/>
<path d="M8965 10950 c3 -5 8 -10 11 -10 2 0 4 5 4 10 0 6 -5 10 -11 10 -5 0
-7 -4 -4 -10z"/>
<path d="M11818 10942 c-5 -18 -32 -23 -53 -10 -13 8 -51 -19 -41 -29 4 -4 19
-7 34 -8 22 0 28 -5 30 -26 2 -17 12 -31 30 -38 19 -9 22 -15 13 -20 -10 -6
-10 -10 -2 -16 8 -4 9 -11 3 -18 -13 -17 -11 -47 5 -77 14 -25 14 -25 11 13
-3 30 -1 37 14 37 10 0 18 7 18 15 0 8 -7 15 -15 15 -14 0 -20 12 -16 34 1 4
-3 14 -9 20 -5 7 -7 16 -3 19 3 4 2 7 -4 7 -18 0 -22 37 -6 60 8 11 18 18 23
15 5 -3 12 0 16 6 4 8 3 9 -4 5 -7 -4 -12 -2 -12 3 0 19 -27 12 -32 -7z"/>
<path d="M9230 10940 c0 -5 5 -10 10 -10 6 0 10 5 10 10 0 6 -4 10 -10 10 -5
0 -10 -4 -10 -10z"/>
<path d="M9362 10913 c2 -17 9 -28 18 -28 9 0 16 11 18 28 3 22 -1 27 -18 27
-17 0 -21 -5 -18 -27z"/>
<path d="M9117 10924 c-11 -12 3 -24 28 -24 12 0 25 7 29 15 4 11 -2 15 -23
15 -15 0 -31 -3 -34 -6z"/>
<path d="M9291 10923 c1 -5 1 -20 0 -35 -1 -26 -3 -27 -41 -24 -30 3 -40 0
-40 -10 0 -8 6 -14 13 -14 7 0 21 -10 31 -22 l19 -22 19 25 c10 13 25 31 32
40 11 13 11 21 -1 42 -12 25 -35 38 -32 20z"/>
<path d="M11906 10895 c4 -8 8 -15 10 -15 2 0 4 7 4 15 0 8 -4 15 -10 15 -5 0
-7 -7 -4 -15z"/>
<path d="M14526 10878 c-9 -12 -16 -18 -16 -13 0 12 -20 -16 -20 -29 0 -4 6
-6 14 -3 7 3 18 1 23 -4 7 -7 12 3 16 27 8 47 4 52 -17 22z"/>
<path d="M15320 10879 c0 -11 5 -17 10 -14 6 3 10 13 10 21 0 8 -4 14 -10 14
-5 0 -10 -9 -10 -21z"/>
<path d="M15260 10870 c0 -5 5 -10 11 -10 5 0 7 5 4 10 -3 6 -8 10 -11 10 -2
0 -4 -4 -4 -10z"/>
<path d="M9090 10866 c0 -18 45 -76 63 -82 29 -9 32 4 7 31 -13 14 -25 23 -28
20 -2 -2 -13 6 -23 18 -10 12 -18 18 -19 13z"/>
<path d="M9448 10863 c-23 -6 -23 -33 0 -33 11 0 18 7 18 20 0 11 0 19 -1 19
0 -1 -8 -3 -17 -6z"/>
<path d="M11936 10837 c-9 -33 -8 -34 19 -41 14 -4 23 -11 20 -16 -3 -5 1 -12
8 -17 8 -4 19 -18 26 -30 11 -21 9 -23 -14 -23 -23 0 -30 10 -26 33 1 5 -8 5
-20 2 -12 -4 -29 -8 -37 -9 -10 -2 -17 -14 -18 -30 -1 -32 11 -42 31 -26 21
18 45 5 45 -25 0 -32 30 -34 31 -2 1 12 1 26 0 30 -1 4 6 10 14 13 17 7 11 49
-11 75 -8 8 -14 19 -14 23 0 5 -11 21 -24 37 -24 28 -24 28 -30 6z m-16 -136
c0 -6 -4 -12 -8 -15 -5 -3 -9 1 -9 9 0 8 4 15 9 15 4 0 8 -4 8 -9z"/>
<path d="M15231 10839 c-7 -15 -25 -33 -40 -40 -23 -11 -24 -13 -6 -17 10 -2
21 1 23 7 2 6 8 9 12 6 12 -8 32 32 27 53 -3 13 -6 11 -16 -9z"/>
<path d="M15285 10850 c-3 -5 1 -10 9 -10 9 0 16 5 16 10 0 6 -4 10 -9 10 -6
0 -13 -4 -16 -10z"/>
<path d="M9502 10830 c0 -14 2 -19 5 -12 2 6 2 18 0 25 -3 6 -5 1 -5 -13z"/>
<path d="M11752 10845 c3 -5 11 -25 18 -42 8 -18 18 -33 23 -33 13 0 -3 43
-25 65 -11 11 -18 16 -16 10z"/>
<path d="M9360 10810 c0 -11 5 -20 10 -20 6 0 10 9 10 20 0 11 -4 20 -10 20
-5 0 -10 -9 -10 -20z"/>
<path d="M14469 10808 c-9 -7 -19 -23 -22 -35 -4 -20 -3 -21 15 -12 21 11 32
32 26 49 -2 7 -9 6 -19 -2z"/>
<path d="M9492 10767 c-16 -37 -15 -41 4 -23 8 9 14 24 11 34 -3 13 -6 11 -15
-11z"/>
<path d="M9417 10773 c-9 -9 -9 -43 1 -43 9 1 52 36 52 44 0 8 -45 8 -53 -1z"/>
<path d="M15288 10758 c-22 -22 -23 -38 -4 -38 7 0 16 12 19 28 6 33 6 33 -15
10z"/>
<path d="M9315 10760 c-3 -5 -4 -10 -1 -10 2 0 12 -3 20 -6 12 -5 15 -2 10 10
-7 18 -20 21 -29 6z"/>
<path d="M14502 10740 c0 -19 2 -27 5 -17 2 9 2 25 0 35 -3 9 -5 1 -5 -18z"/>
<path d="M15150 10759 c0 -5 5 -7 10 -4 6 3 10 8 10 11 0 2 -4 4 -10 4 -5 0
-10 -5 -10 -11z"/>
<path d="M9240 10750 c0 -5 5 -10 11 -10 5 0 7 -4 4 -10 -3 -5 3 -10 14 -10
31 0 35 19 6 30 -33 12 -35 12 -35 0z"/>
<path d="M15215 10730 c3 -5 10 -10 16 -10 5 0 9 5 9 10 0 6 -7 10 -16 10 -8
0 -12 -4 -9 -10z"/>
<path d="M9215 10720 c-8 -13 13 -40 29 -39 7 0 7 2 -1 5 -7 3 -10 11 -7 19 7
16 -12 29 -21 15z"/>
<path d="M9330 10700 c0 -5 5 -10 11 -10 5 0 7 5 4 10 -3 6 -8 10 -11 10 -2 0
-4 -4 -4 -10z"/>
<path d="M15160 10700 c-13 -9 -12 -12 4 -25 22 -16 39 -3 29 22 -6 16 -13 16
-33 3z"/>
<path d="M9440 10675 c0 -14 5 -25 10 -25 6 0 10 2 10 4 0 2 3 11 6 19 3 8 -2
17 -10 20 -12 5 -16 0 -16 -18z"/>
<path d="M14413 10670 c-23 -21 -32 -70 -13 -70 13 0 42 58 38 76 -2 12 -7 11
-25 -6z"/>
<path d="M9350 10666 c0 -22 13 -26 46 -16 24 7 25 8 7 9 -12 1 -25 6 -28 11
-9 15 -25 12 -25 -4z"/>
<path d="M15060 10668 c0 -10 5 -18 10 -18 13 0 1 -52 -14 -62 -6 -4 -7 -10
-3 -14 7 -7 57 33 57 45 -1 3 -12 20 -25 36 -19 23 -25 26 -25 13z"/>
<path d="M15207 10652 c-10 -10 -14 -22 -11 -25 6 -6 44 29 44 40 0 9 -19 1
-33 -15z"/>
<path d="M9260 10651 c0 -6 9 -15 21 -21 18 -10 20 -9 17 7 -3 19 -38 32 -38
14z"/>
<path d="M11867 10654 c-3 -3 -3 -12 0 -20 4 -11 9 -12 19 -3 8 6 11 15 8 20
-6 10 -18 12 -27 3z"/>
<path d="M12060 10635 c0 -8 5 -15 10 -15 6 0 10 7 10 15 0 8 -4 15 -10 15 -5
0 -10 -7 -10 -15z"/>
<path d="M11944 10607 c-7 -20 -2 -47 11 -50 14 -3 19 43 6 56 -7 7 -12 6 -17
-6z"/>
<path d="M15014 10609 c-7 -12 15 -31 28 -23 4 3 8 12 8 20 0 17 -26 19 -36 3z"/>
<path d="M9335 10591 c-3 -5 9 -17 26 -25 38 -19 39 -19 39 -6 0 14 -58 42
-65 31z"/>
<path d="M9407 10587 c-3 -8 -2 -19 3 -26 5 -10 9 -8 14 4 3 9 6 21 6 26 0 14
-17 11 -23 -4z"/>
<path d="M11900 10590 c0 -5 5 -10 10 -10 6 0 10 5 10 10 0 6 -4 10 -10 10 -5
0 -10 -4 -10 -10z"/>
<path d="M15147 10593 c-13 -12 -7 -43 8 -43 12 0 35 28 35 44 0 8 -35 7 -43
-1z"/>
<path d="M12010 10582 c0 -6 -9 -14 -20 -17 -24 -8 -26 -40 -4 -53 12 -7 15
-19 12 -41 -5 -33 1 -38 20 -19 16 16 15 33 -4 52 -14 14 -13 18 6 38 11 12
19 27 17 32 -5 14 -27 20 -27 8z"/>
<path d="M14469 10578 c-5 -24 -4 -78 3 -78 4 0 8 18 8 40 0 22 -2 40 -5 40
-3 0 -5 -1 -6 -2z"/>
<path d="M14982 10551 c-32 -44 -13 -78 36 -60 25 9 30 39 7 39 -8 0 -15 -7
-15 -16 0 -9 -5 -14 -12 -12 -19 7 -20 24 -3 42 9 9 15 21 13 27 -2 5 -13 -3
-26 -20z"/>
<path d="M14371 10534 c0 -11 3 -14 6 -6 3 7 2 16 -1 19 -3 4 -6 -2 -5 -13z"/>
<path d="M12070 10520 c0 -8 5 -22 10 -30 5 -8 10 -11 10 -6 0 5 6 3 14 -3 11
-9 15 -9 20 1 5 10 7 10 12 1 6 -14 34 -18 34 -5 0 5 -7 17 -16 28 -11 13 -17
15 -20 7 -8 -19 -35 -16 -50 5 -11 14 -13 14 -14 2z"/>
<path d="M14415 10519 c-9 -14 4 -99 14 -99 12 0 23 67 16 90 -7 22 -20 26
-30 9z"/>
<path d="M15080 10522 c0 -4 6 -14 13 -21 10 -10 9 -14 -5 -22 -10 -6 -18 -19
-18 -30 0 -26 16 -16 36 22 12 24 13 34 3 45 -12 15 -29 19 -29 6z"/>
<path d="M14922 10467 c-5 -6 -13 -23 -17 -37 -4 -14 -25 -47 -45 -75 l-38
-51 23 -20 c12 -11 24 -26 27 -34 3 -11 9 -9 26 8 17 17 20 27 13 40 -6 9 -11
12 -11 7 0 -6 -9 -11 -20 -12 -16 -1 -20 4 -18 28 1 16 7 29 13 29 14 0 75 86
75 105 0 20 -16 27 -28 12z"/>
<path d="M12187 10453 c-16 -15 -6 -41 17 -45 24 -5 24 -4 8 21 -9 14 -17 27
-17 29 -1 1 -5 -1 -8 -5z"/>
<path d="M12100 10440 c-9 -5 -28 -7 -43 -6 -14 2 -24 0 -22 -5 3 -4 1 -10 -5
-14 -6 -4 -8 -11 -5 -16 9 -14 41 -11 55 6 7 9 18 14 25 12 6 -3 12 4 12 14 1
10 1 19 0 19 -1 0 -9 -5 -17 -10z"/>
<path d="M14352 10428 c-18 -18 -15 -68 3 -68 11 0 15 11 15 40 0 44 -1 45
-18 28z"/>
<path d="M15040 10405 c0 -8 5 -15 10 -15 6 0 10 7 10 15 0 8 -4 15 -10 15 -5
0 -10 -7 -10 -15z"/>
<path d="M12155 10400 c-3 -5 -1 -10 4 -10 6 0 11 5 11 10 0 6 -2 10 -4 10 -3
0 -8 -4 -11 -10z"/>
<path d="M12236 10377 c3 -10 9 -15 12 -12 3 3 0 11 -7 18 -10 9 -11 8 -5 -6z"/>
<path d="M14926 10364 c-4 -10 -2 -13 6 -8 8 5 9 2 5 -10 -4 -10 -3 -15 3 -11
12 8 13 32 1 39 -5 3 -12 -1 -15 -10z"/>
<path d="M14434 10359 c-3 -6 -1 -16 5 -22 8 -8 11 -5 11 11 0 24 -5 28 -16
11z"/>
<path d="M12057 10354 c-4 -4 7 -21 23 -37 17 -17 30 -34 30 -38 0 -4 8 -7 18
-7 9 0 22 -1 27 -3 10 -4 15 3 15 22 0 6 -9 8 -20 4 -23 -7 -28 13 -8 33 9 9
9 15 0 24 -9 9 -12 8 -12 -5 0 -9 -5 -17 -11 -17 -5 0 -7 -4 -4 -10 3 -5 0 -7
-8 -4 -8 3 -17 14 -20 25 -5 19 -18 25 -30 13z"/>
<path d="M12190 10333 c0 -5 5 -15 10 -23 8 -12 10 -11 10 8 0 12 -4 22 -10
22 -5 0 -10 -3 -10 -7z"/>
<path d="M12270 10324 c0 -9 9 -18 20 -21 11 -3 20 -12 20 -19 0 -8 7 -14 15
-14 21 0 19 6 -16 40 -37 35 -39 35 -39 14z"/>
<path d="M14956 10297 c-9 -7 -19 -24 -20 -37 -2 -14 -7 -34 -12 -44 -5 -14
-4 -17 4 -12 7 4 12 13 12 19 0 7 8 24 17 37 15 21 26 50 19 50 -1 0 -10 -6
-20 -13z"/>
<path d="M12226 10284 c-4 -9 -4 -19 -2 -22 10 -9 36 8 36 23 0 20 -26 19 -34
-1z"/>
<path d="M7460 10270 c0 -12 48 -25 58 -16 8 9 -18 26 -40 26 -10 0 -18 -4
-18 -10z"/>
<path d="M12272 10248 c6 -18 25 -21 25 -3 0 8 -7 15 -14 15 -8 0 -13 -5 -11
-12z"/>
<path d="M14790 10244 c0 -8 -7 -28 -15 -44 -13 -26 -13 -30 1 -44 11 -11 14
-25 9 -46 -5 -23 -3 -30 8 -30 9 0 18 8 20 18 4 13 5 11 6 -5 1 -26 26 -31 35
-7 9 24 7 34 -8 34 -7 0 -21 11 -30 25 -18 27 -22 85 -6 85 15 0 12 17 -5 24
-9 3 -15 0 -15 -10z"/>
<path d="M7550 10240 c0 -5 7 -10 15 -10 8 0 15 5 15 10 0 6 -7 10 -15 10 -8
0 -15 -4 -15 -10z"/>
<path d="M14317 10243 c-10 -9 -9 -51 1 -57 4 -3 9 11 9 30 1 36 0 38 -10 27z"/>
<path d="M12188 10226 c-19 -18 -24 -46 -9 -46 15 0 33 28 29 46 -3 17 -4 17
-20 0z"/>
<path d="M14411 10188 c1 -55 5 -50 11 15 2 20 0 37 -4 37 -4 0 -7 -24 -7 -52z"/>
<path d="M7680 10220 c-8 -5 -4 -9 12 -13 33 -9 50 -8 44 2 -8 13 -42 20 -56
11z"/>
<path d="M12380 10226 c0 -3 9 -10 20 -16 11 -6 20 -8 20 -6 0 3 -9 10 -20 16
-11 6 -20 8 -20 6z"/>
<path d="M12340 10199 c7 -11 14 -18 17 -15 8 8 -5 36 -17 36 -7 0 -7 -6 0
-21z"/>
<path d="M14840 10204 c0 -8 5 -12 10 -9 6 3 10 10 10 16 0 5 -4 9 -10 9 -5 0
-10 -7 -10 -16z"/>
<path d="M7760 10191 c0 -25 19 -31 54 -16 29 12 29 13 8 24 -33 17 -62 14
-62 -8z"/>
<path d="M12237 10197 c-6 -15 10 -37 26 -37 12 0 4 43 -9 47 -6 2 -14 -3 -17
-10z"/>
<path d="M12437 10179 c7 -7 15 -10 18 -7 3 3 -2 9 -12 12 -14 6 -15 5 -6 -5z"/>
<path d="M14897 10183 c-4 -3 -7 -11 -7 -17 0 -6 5 -5 12 2 6 6 9 14 7 17 -3
3 -9 2 -12 -2z"/>
<path d="M7936 10165 c4 -10 16 -15 33 -13 37 4 32 22 -6 26 -27 3 -32 0 -27
-13z"/>
<path d="M7800 10150 c0 -6 7 -13 15 -17 24 -9 27 1 5 15 -13 8 -20 8 -20 2z"/>
<path d="M8308 10149 c12 -4 22 -13 22 -19 0 -15 19 -12 36 4 21 21 19 23 -33
23 -37 1 -43 -1 -25 -8z"/>
<path d="M12200 10150 c0 -5 5 -10 11 -10 5 0 7 5 4 10 -3 6 -8 10 -11 10 -2
0 -4 -4 -4 -10z"/>
<path d="M7865 10140 c-20 -8 -20 -9 1 -9 11 -1 29 -8 40 -16 10 -8 28 -14 39
-14 17 0 17 2 -5 12 -14 6 -29 17 -33 24 -9 15 -14 15 -42 3z"/>
<path d="M8208 10143 c7 -3 16 -2 19 1 4 3 -2 6 -13 5 -11 0 -14 -3 -6 -6z"/>
<path d="M12313 10143 c-7 -2 -13 -10 -13 -18 0 -7 -7 -19 -16 -26 -14 -11
-18 -10 -30 6 -8 10 -16 16 -20 13 -3 -4 4 -16 15 -27 12 -12 21 -26 21 -32 0
-8 5 -8 15 1 8 7 14 20 13 29 -2 10 3 15 15 13 12 -2 17 4 17 23 0 14 -1 25
-2 24 -2 0 -9 -3 -15 -6z"/>
<path d="M12400 10135 c0 -8 7 -15 16 -15 14 0 14 3 4 15 -7 8 -14 15 -16 15
-2 0 -4 -7 -4 -15z"/>
<path d="M8025 10130 c-4 -6 7 -10 24 -10 17 0 31 5 31 10 0 6 -11 10 -24 10
-14 0 -28 -4 -31 -10z"/>
<path d="M14720 10115 c-8 -16 -23 -39 -32 -49 -21 -23 -23 -46 -5 -46 20 1
58 70 55 99 l-4 26 -14 -30z"/>
<path d="M14322 10089 c-2 -34 2 -46 13 -46 9 0 11 4 6 11 -5 6 -11 27 -14 46
-3 31 -4 30 -5 -11z"/>
<path d="M8406 10113 c-19 -5 -55 -41 -56 -55 0 -15 30 -8 48 10 15 15 38 56
29 51 -1 -1 -11 -4 -21 -6z"/>
<path d="M8280 10094 c0 -8 9 -14 20 -14 11 0 20 4 20 9 0 5 -9 11 -20 14 -13
3 -20 0 -20 -9z"/>
<path d="M12437 10103 c-4 -3 -7 -15 -7 -25 0 -14 6 -19 23 -16 29 4 38 48 9
48 -10 0 -22 -3 -25 -7z"/>
<path d="M12550 10085 c0 -23 43 -37 51 -16 9 23 2 31 -27 31 -15 0 -24 -6
-24 -15z"/>
<path d="M7990 10078 c0 -5 5 -8 11 -8 7 0 17 -7 24 -17 17 -23 50 -10 36 14
-9 18 -71 26 -71 11z"/>
<path d="M8450 10076 c0 -14 24 -29 33 -19 3 3 3 11 0 19 -7 18 -33 18 -33 0z"/>
<path d="M12320 10053 c-28 -11 -29 -28 -3 -55 30 -32 43 -35 43 -12 0 8 -5
12 -10 9 -16 -10 -23 21 -10 44 11 21 7 24 -20 14z"/>
<path d="M14740 10029 c-7 -16 -11 -31 -9 -32 11 -7 59 -26 59 -23 0 2 -7 16
-15 32 -10 19 -11 30 -4 35 7 4 5 8 -4 12 -10 4 -19 -4 -27 -24z"/>
<path d="M12610 10041 c0 -10 7 -13 26 -10 4 0 11 -5 16 -13 7 -9 8 -8 6 7 -3
21 -48 35 -48 16z"/>
<path d="M12760 10030 c0 -5 9 -10 21 -10 11 0 17 5 14 10 -3 6 -13 10 -21 10
-8 0 -14 -4 -14 -10z"/>
<path d="M8110 10025 c0 -2 9 -9 20 -15 16 -9 20 -8 20 5 0 8 -9 15 -20 15
-11 0 -20 -2 -20 -5z"/>
<path d="M8220 10020 c0 -5 9 -10 20 -10 11 0 20 5 20 10 0 6 -9 10 -20 10
-11 0 -20 -4 -20 -10z"/>
<path d="M8484 10004 c1 -15 8 -30 15 -32 10 -3 11 2 6 19 -11 36 -22 43 -21
13z"/>
<path d="M12380 10015 c-8 -9 -8 -15 -2 -15 12 0 26 19 19 26 -2 2 -10 -2 -17
-11z"/>
<path d="M12580 10015 c-8 -9 -8 -15 -2 -15 12 0 26 19 19 26 -2 2 -10 -2 -17
-11z"/>
<path d="M12423 10006 c9 -10 17 -22 17 -27 0 -5 9 -9 20 -9 23 0 17 25 -8 34
-9 3 -24 9 -32 13 -10 4 -10 1 3 -11z"/>
<path d="M14360 10000 c0 -25 21 -70 33 -70 5 0 7 14 3 31 -3 17 -6 38 -6 45
0 8 -7 14 -15 14 -8 0 -15 -9 -15 -20z"/>
<path d="M12880 10000 c0 -5 5 -10 10 -10 6 0 10 5 10 10 0 6 -4 10 -10 10 -5
0 -10 -4 -10 -10z"/>
<path d="M8165 9990 c-4 -6 -4 -10 -1 -10 2 0 11 -3 20 -6 9 -3 16 -2 16 4 0
14 -28 23 -35 12z"/>
<path d="M8270 9986 c0 -9 8 -14 20 -13 24 2 21 21 -3 25 -10 2 -17 -3 -17
-12z"/>
<path d="M8373 9993 c-7 -3 -13 -14 -12 -26 0 -12 3 -16 6 -9 7 18 23 4 23
-21 0 -25 45 -73 54 -58 4 5 2 13 -4 16 -6 4 -21 28 -33 54 -13 28 -27 46 -34
44z"/>
<path d="M8546 9987 c-16 -12 -16 -14 2 -30 19 -17 20 -17 24 13 5 33 0 36
-26 17z"/>
<path d="M12547 9993 c-7 -10 28 -53 42 -53 16 0 14 6 -13 35 -13 14 -26 22
-29 18z"/>
<path d="M14626 9954 c-3 -8 1 -22 9 -30 8 -9 15 -25 15 -37 0 -12 7 -30 15
-41 10 -13 11 -24 4 -37 -5 -11 -6 -19 -2 -19 5 0 14 13 21 30 12 26 11 35 -4
70 -10 22 -21 40 -26 40 -4 0 -8 6 -8 14 0 22 -17 28 -24 10z"/>
<path d="M8230 9940 c30 -24 44 -25 36 -4 -3 9 -6 18 -6 20 0 2 -12 4 -27 4
l-28 0 25 -20z"/>
<path d="M12390 9950 c0 -5 7 -10 16 -10 8 0 12 5 9 10 -3 6 -10 10 -16 10 -5
0 -9 -4 -9 -10z"/>
<path d="M13120 9946 c0 -2 7 -6 15 -10 8 -3 15 -1 15 4 0 6 -7 10 -15 10 -8
0 -15 -2 -15 -4z"/>
<path d="M12450 9910 c6 -11 15 -18 21 -15 5 4 9 1 9 -5 0 -6 4 -9 9 -6 18 12
-1 46 -26 46 -21 0 -22 -3 -13 -20z"/>
<path d="M12538 9924 c-8 -7 3 -44 13 -44 13 0 20 17 13 34 -6 16 -16 20 -26
10z"/>
<path d="M14732 9918 c-14 -14 -16 -28 -2 -28 5 0 14 9 20 20 12 22 1 27 -18
8z"/>
<path d="M14319 9903 c-13 -16 -12 -17 4 -4 16 13 21 21 13 21 -2 0 -10 -8
-17 -17z"/>
<path d="M8305 9885 c33 -27 63 -40 72 -31 9 8 -28 47 -38 40 -5 -3 -9 0 -9 5
0 6 -12 11 -27 11 l-28 -1 30 -24z"/>
<path d="M8604 9901 c-15 -10 -14 -48 1 -61 11 -9 12 -7 8 8 -6 24 10 36 36
27 14 -4 18 -13 15 -29 -3 -17 3 -26 20 -34 22 -10 23 -9 18 11 -12 49 -72 97
-98 78z"/>
<path d="M13213 9897 c2 -7 21 -13 41 -15 28 -2 37 0 34 10 -3 7 -21 14 -42
15 -24 0 -36 -3 -33 -10z"/>
<path d="M13000 9890 c0 -5 24 -10 54 -10 30 0 58 5 61 10 4 6 -17 10 -54 10
-34 0 -61 -4 -61 -10z"/>
<path d="M14585 9865 c8 -47 12 -52 26 -38 7 7 4 21 -11 44 l-22 34 7 -40z"/>
<path d="M12425 9859 c34 -45 143 -117 120 -79 -4 6 -11 8 -16 4 -6 -3 -13 3
-16 15 -3 12 -11 21 -18 21 -7 0 -15 6 -18 13 -3 6 -19 21 -37 31 l-33 19 18
-24z"/>
<path d="M12500 9873 c0 -6 9 -21 20 -34 15 -18 19 -20 20 -8 0 9 -9 24 -20
34 -11 10 -20 13 -20 8z"/>
<path d="M12597 9873 c-10 -3 -16 -10 -14 -16 6 -20 24 -18 30 3 3 11 4 19 4
19 -1 -1 -10 -3 -20 -6z"/>
<path d="M13326 9872 c-9 -9 -7 -34 2 -28 5 3 25 -4 45 -14 40 -22 81 -26 75
-9 -4 13 -114 59 -122 51z"/>
<path d="M14283 9845 c0 -22 2 -30 4 -17 2 12 2 30 0 40 -3 9 -5 -1 -4 -23z"/>
<path d="M8510 9855 c0 -8 4 -15 9 -15 5 0 12 -11 15 -25 4 -16 11 -22 21 -19
12 5 15 -3 15 -34 0 -28 5 -42 16 -46 14 -5 15 -1 10 21 -4 16 -7 36 -7 46 0
9 -4 17 -10 17 -5 0 -9 6 -9 13 0 7 -13 23 -30 35 -24 18 -30 20 -30 7z"/>
<path d="M14375 9861 c-6 -10 3 -102 11 -110 2 -2 4 23 4 57 0 61 -3 71 -15
53z"/>
<path d="M8634 9806 c-8 -21 4 -68 15 -61 14 8 18 -62 6 -85 -6 -11 -13 -19
-16 -16 -2 2 -9 -6 -15 -18 -8 -17 -8 -28 2 -40 10 -15 16 -9 43 48 34 72 41
122 16 113 -10 -5 -16 4 -21 29 -7 39 -21 53 -30 30z"/>
<path d="M8397 9790 c8 -31 23 -34 23 -6 0 16 -6 26 -14 26 -9 0 -12 -7 -9
-20z"/>
<path d="M13157 9804 c-12 -12 4 -24 33 -24 16 0 31 4 34 9 10 16 -52 30 -67
15z"/>
<path d="M14320 9799 c0 -5 5 -7 10 -4 6 3 10 8 10 11 0 2 -4 4 -10 4 -5 0
-10 -5 -10 -11z"/>
<path d="M8480 9769 c13 -23 33 -25 28 -2 -2 9 -11 17 -20 19 -15 2 -16 -1 -8
-17z"/>
<path d="M12660 9775 c0 -9 5 -15 11 -13 6 2 11 8 11 13 0 5 -5 11 -11 13 -6
2 -11 -4 -11 -13z"/>
<path d="M12840 9775 c0 -10 -5 -15 -14 -12 -8 3 -13 -2 -12 -14 1 -27 16 -25
36 6 10 16 20 22 23 16 3 -7 4 -7 3 1 -4 20 -36 22 -36 3z"/>
<path d="M13033 9769 c-4 -14 -12 -19 -27 -17 -11 2 -20 9 -18 16 1 7 -9 12
-23 12 -14 0 -25 -3 -25 -7 0 -8 49 -38 64 -40 5 -1 13 -8 18 -17 5 -9 14 -13
20 -10 7 4 8 2 4 -4 -4 -7 -16 -12 -26 -12 -21 0 -36 -16 -20 -22 6 -2 12 -13
15 -26 6 -33 12 -39 40 -39 24 0 24 0 8 28 -9 15 -21 25 -26 22 -5 -3 -7 3 -5
13 2 10 12 20 23 22 22 4 65 40 65 55 0 5 -6 7 -12 4 -7 -2 -12 -10 -10 -16 2
-13 -44 -15 -53 -2 -3 5 -1 12 5 16 13 8 13 45 -1 45 -6 0 -13 -9 -16 -21z"/>
<path d="M13450 9776 c0 -24 18 -28 30 -6 9 17 8 20 -10 20 -11 0 -20 -6 -20
-14z"/>
<path d="M12726 9763 c-4 -9 -1 -21 5 -27 9 -8 10 -8 5 1 -3 7 2 14 14 18 25
8 26 25 1 25 -10 0 -22 -8 -25 -17z"/>
<path d="M14680 9764 c0 -8 5 -12 10 -9 6 3 10 10 10 16 0 5 -4 9 -10 9 -5 0
-10 -7 -10 -16z"/>
<path d="M14281 9738 c-1 -30 2 -36 15 -31 9 3 11 8 6 12 -6 3 -12 17 -15 31
-3 19 -5 16 -6 -12z"/>
<path d="M13390 9750 c-11 -7 -12 -13 -2 -35 14 -31 34 -24 29 10 -4 31 -9 36
-27 25z"/>
<path d="M13518 9753 c7 -3 16 -2 19 1 4 3 -2 6 -13 5 -11 0 -14 -3 -6 -6z"/>
<path d="M8440 9737 c0 -18 28 -42 37 -33 9 8 -9 38 -25 44 -7 2 -12 -3 -12
-11z"/>
<path d="M12890 9730 c6 -11 16 -17 25 -13 12 4 13 9 4 19 -6 8 -18 14 -26 14
-11 0 -11 -4 -3 -20z"/>
<path d="M14320 9735 c0 -8 5 -15 10 -15 6 0 14 -10 19 -22 5 -13 10 -17 14
-11 4 6 0 18 -8 26 -8 9 -15 20 -15 26 0 6 -4 11 -10 11 -5 0 -10 -7 -10 -15z"/>
<path d="M12640 9730 c-23 -7 -23 -8 -3 -9 12 -1 25 4 28 9 3 6 5 10 3 9 -2
-1 -14 -5 -28 -9z"/>
<path d="M14487 9727 c-3 -8 -1 -20 4 -28 6 -10 9 -7 9 14 0 29 -5 35 -13 14z"/>
<path d="M12746 9715 c-7 -20 33 -42 45 -24 9 15 -7 39 -26 39 -7 0 -15 -7
-19 -15z"/>
<path d="M14595 9680 c4 -30 7 -61 8 -68 0 -11 3 -11 13 0 10 10 10 23 0 60
-17 68 -29 72 -21 8z"/>
<path d="M14543 9687 c-1 -30 -1 -31 8 -8 5 14 6 28 2 32 -4 4 -9 -6 -10 -24z"/>
<path d="M12676 9702 c-3 -3 -3 -9 0 -13 7 -12 54 -12 54 0 0 10 -47 21 -54
13z"/>
<path d="M12840 9675 c-16 -30 -7 -43 15 -21 9 9 21 16 27 16 6 0 6 6 -2 15
-17 21 -25 19 -40 -10z"/>
<path d="M13443 9666 c1 -19 5 -32 9 -30 4 2 9 -5 13 -16 7 -23 14 -24 37 -6
20 15 14 26 -14 26 -13 0 -18 8 -18 30 0 20 -5 30 -15 30 -11 0 -14 -9 -12
-34z"/>
<path d="M13530 9693 c0 -6 -3 -20 -6 -30 -7 -17 -6 -17 12 -1 14 14 16 21 6
30 -8 8 -12 9 -12 1z"/>
<path d="M14469 9694 c-1 -5 -1 -12 0 -16 0 -5 -3 -8 -9 -8 -5 0 -9 -15 -9
-32 1 -20 3 -25 6 -13 2 11 9 30 15 42 6 13 8 26 5 30 -4 3 -8 2 -8 -3z"/>
<path d="M14652 9675 c0 -16 2 -22 5 -12 2 9 2 23 0 30 -3 6 -5 -1 -5 -18z"/>
<path d="M8486 9682 c-3 -5 1 -15 9 -22 16 -14 20 -3 6 19 -5 8 -11 9 -15 3z"/>
<path d="M13356 9681 c-10 -15 3 -53 17 -48 17 5 18 21 4 41 -10 13 -16 16
-21 7z"/>
<path d="M12796 9658 c3 -5 10 -6 15 -3 13 9 11 12 -6 12 -8 0 -12 -4 -9 -9z"/>
<path d="M8527 9653 c-14 -14 -6 -34 18 -43 14 -5 25 -17 25 -25 0 -9 4 -14 9
-11 5 4 12 0 14 -6 3 -7 6 -4 6 7 1 11 -8 28 -19 38 -11 9 -20 24 -20 32 0 15
-21 21 -33 8z"/>
<path d="M12915 9650 c3 -5 15 -10 26 -10 10 0 19 5 19 10 0 6 -12 10 -26 10
-14 0 -23 -4 -19 -10z"/>
<path d="M13090 9650 c0 -5 10 -10 23 -10 18 0 19 2 7 10 -19 13 -30 13 -30 0z"/>
<path d="M14325 9627 c-5 -19 -3 -32 6 -40 8 -7 10 -8 6 -3 -4 5 -2 15 4 22 7
9 7 19 1 31 -9 16 -11 15 -17 -10z"/>
<path d="M13400 9610 c0 -5 5 -10 10 -10 6 0 10 5 10 10 0 6 -4 10 -10 10 -5
0 -10 -4 -10 -10z"/>
<path d="M13090 9590 c0 -5 5 -10 10 -10 6 0 10 5 10 10 0 6 -4 10 -10 10 -5
0 -10 -4 -10 -10z"/>
<path d="M14554 9520 c-1 -26 1 -28 15 -18 37 29 40 48 9 48 -19 0 -23 -6 -24
-30z"/>
<path d="M14622 9530 c0 -14 2 -19 5 -12 2 6 2 18 0 25 -3 6 -5 1 -5 -13z"/>
<path d="M14493 9532 c-6 -4 -17 -20 -23 -36 -9 -23 -8 -27 2 -18 14 11 17 12
48 12 11 0 20 5 20 11 0 7 -10 9 -25 7 -21 -4 -23 -3 -14 13 11 21 10 22 -8
11z"/>
<path d="M14346 9506 c3 -9 11 -16 16 -16 13 0 5 23 -10 28 -7 2 -10 -2 -6
-12z"/>
<path d="M14590 9464 c0 -8 5 -12 10 -9 6 3 10 10 10 16 0 5 -4 9 -10 9 -5 0
-10 -7 -10 -16z"/>
<path d="M14525 9430 c3 -5 10 -10 16 -10 5 0 9 5 9 10 0 6 -7 10 -16 10 -8 0
-12 -4 -9 -10z"/>
<path d="M14555 9403 c-7 -20 -6 -23 5 -23 5 0 14 8 19 18 7 14 6 19 -4 19 -8
0 -17 -7 -20 -14z"/>
<path d="M17111 9162 c-25 -2 -52 -11 -64 -23 l-21 -19 33 0 c29 0 32 2 21 15
-11 13 -3 15 64 15 59 0 76 -3 76 -14 0 -11 17 -14 73 -15 61 0 69 2 55 13
-10 7 -15 16 -11 19 3 4 -27 7 -68 8 -41 0 -83 1 -94 2 -11 1 -40 1 -64 -1z"/>
<path d="M17553 9123 c26 -2 67 -2 90 0 23 2 2 3 -48 3 -49 0 -68 -1 -42 -3z"/>
<path d="M16800 9100 c-27 -9 -22 -12 23 -15 15 -1 26 3 24 8 -5 15 -17 16
-47 7z"/>
<path d="M17690 9100 c-8 -5 -11 -13 -6 -17 5 -4 11 -2 13 5 3 6 10 9 15 6 7
-4 8 -2 4 4 -9 14 -7 14 -26 2z"/>
<path d="M16935 9078 c2 -21 6 -23 43 -20 30 3 42 0 42 -10 0 -10 2 -10 10 2
12 19 -6 40 -34 39 -19 -1 -18 -2 4 -9 l25 -8 -26 -1 c-15 -1 -29 5 -33 14 -9
24 -33 18 -31 -7z"/>
<path d="M17178 9083 c6 -2 18 -2 25 0 6 3 1 5 -13 5 -14 0 -19 -2 -12 -5z"/>
<path d="M17840 9075 c0 -8 7 -15 15 -15 8 0 15 7 15 15 0 8 -7 15 -15 15 -8
0 -15 -7 -15 -15z"/>
<path d="M16690 9060 c0 -5 7 -10 15 -10 8 0 15 5 15 10 0 6 -7 10 -15 10 -8
0 -15 -4 -15 -10z"/>
<path d="M17178 9063 c6 -2 18 -2 25 0 6 3 1 5 -13 5 -14 0 -19 -2 -12 -5z"/>
<path d="M17968 9063 c7 -3 16 -2 19 1 4 3 -2 6 -13 5 -11 0 -14 -3 -6 -6z"/>
<path d="M17935 9045 c-5 -11 -10 -24 -13 -30 -3 -5 3 -3 13 7 9 9 15 22 12
30 -3 9 -7 7 -12 -7z"/>
<path d="M9565 9044 c-16 -2 -82 -9 -145 -15 -187 -18 -402 -62 -608 -125
-419 -127 -887 -399 -1197 -696 -27 -26 -66 -62 -86 -80 -39 -36 -273 -306
-304 -351 -19 -27 -52 -76 -116 -173 -60 -90 -141 -234 -165 -293 -14 -35 -36
-85 -49 -110 -30 -59 -90 -207 -99 -245 -4 -17 -22 -68 -41 -115 -18 -48 -36
-108 -40 -136 -3 -27 -13 -68 -20 -90 -8 -22 -20 -71 -26 -110 -6 -38 -15 -92
-19 -120 -24 -137 -33 -258 -34 -440 -1 -251 1 -284 30 -480 71 -479 234 -904
498 -1300 178 -268 420 -533 647 -710 29 -22 63 -50 76 -62 13 -13 28 -23 33
-23 4 0 30 -17 57 -38 26 -21 74 -53 106 -71 31 -18 57 -36 57 -41 0 -4 15
-13 33 -19 17 -7 73 -36 122 -65 116 -69 491 -222 620 -253 55 -13 111 -28
124 -34 13 -5 61 -17 105 -26 505 -96 985 -84 1446 38 239 63 479 155 663 256
54 29 101 53 104 53 7 0 325 210 333 220 3 3 26 22 51 41 245 185 564 539 710
789 18 30 42 69 54 85 54 75 201 390 242 519 19 61 48 146 64 188 16 43 33
106 38 142 5 35 14 72 19 83 6 10 15 52 21 93 6 41 16 107 21 145 35 229 32
653 -5 870 -56 329 -104 505 -202 745 -83 203 -222 458 -333 610 -19 26 -42
58 -50 70 -92 137 -353 414 -511 543 -123 99 -191 150 -283 210 -60 39 -136
85 -156 94 -8 4 -29 17 -46 30 -17 13 -59 35 -94 49 -34 14 -72 31 -84 39 -65
42 -458 188 -571 211 -38 8 -92 21 -120 29 -148 42 -464 76 -685 73 -85 0
-168 -2 -185 -4z m545 -444 c58 -6 123 -16 145 -22 22 -5 63 -14 90 -18 64
-12 112 -24 150 -40 17 -7 62 -20 100 -30 92 -23 319 -114 370 -149 22 -15 65
-37 95 -49 30 -13 73 -36 95 -52 22 -16 60 -40 85 -54 25 -13 62 -38 84 -55
21 -17 42 -31 45 -31 4 0 23 -15 42 -32 20 -18 44 -38 54 -44 35 -20 8 -59
-156 -222 -89 -89 -163 -162 -166 -162 -3 0 -46 31 -96 69 -51 37 -125 89
-166 114 l-75 47 -18 -28 c-117 -170 -147 -387 -82 -579 l16 -48 -37 -30 c-21
-16 -89 -79 -152 -140 -62 -60 -121 -114 -131 -119 -29 -15 -453 -439 -467
-467 -12 -23 -1102 -1118 -1297 -1304 -41 -38 -105 -105 -143 -147 -40 -46
-77 -78 -88 -78 -10 0 -44 8 -75 17 -79 24 -256 23 -336 -1 -60 -18 -175 -73
-209 -100 -17 -14 -16 -18 24 -83 24 -37 76 -112 116 -165 40 -54 73 -101 73
-106 0 -12 -308 -312 -321 -312 -26 0 -135 143 -242 320 -73 120 -172 320
-212 430 -15 41 -33 91 -40 110 -57 155 -108 389 -134 615 -12 108 -7 470 8
575 7 47 14 101 16 120 7 65 27 165 42 205 8 22 28 91 44 154 36 141 104 307
173 426 29 49 59 106 66 125 7 19 27 52 43 72 16 21 38 55 50 76 37 64 90 135
185 249 15 18 79 85 142 150 403 414 914 678 1503 778 81 14 151 24 155 21 4
-2 25 0 47 4 56 12 458 5 585 -10z m1779 -1002 c41 -41 164 -217 231 -333 83
-145 153 -301 240 -535 14 -38 69 -245 75 -282 3 -18 12 -69 20 -113 9 -44 19
-116 23 -160 8 -90 8 -484 0 -560 -10 -93 -25 -193 -31 -202 -3 -4 -8 -35 -12
-67 -3 -33 -11 -68 -16 -78 -9 -17 -17 -46 -46 -178 -3 -14 -37 -104 -75 -200
-61 -153 -114 -260 -153 -310 -6 -8 -18 -31 -25 -50 -8 -19 -31 -58 -52 -87
-21 -29 -38 -57 -38 -63 0 -5 -15 -27 -34 -47 -18 -21 -41 -53 -50 -70 -9 -18
-21 -33 -26 -33 -5 0 -21 -17 -34 -37 -22 -35 -51 -68 -157 -180 -49 -51 -155
-150 -204 -190 -22 -18 -60 -48 -84 -68 -69 -57 -256 -178 -360 -234 -288
-156 -589 -257 -926 -310 -259 -42 -660 -29 -930 29 -72 16 -139 31 -180 42
-73 18 -499 190 -570 230 -127 71 -210 121 -215 128 -3 4 -30 23 -60 43 -108
72 -145 104 -148 126 -3 18 28 55 150 177 84 85 156 154 159 154 3 0 44 -28
90 -63 46 -34 115 -82 153 -107 l68 -44 20 25 c35 44 88 163 103 234 19 92 19
195 -1 284 l-16 71 353 356 c195 195 362 359 372 362 19 8 367 352 367 363 0
4 9 10 19 14 11 3 35 29 55 58 32 49 328 344 647 647 78 74 155 153 171 175
16 22 82 94 146 160 64 67 129 136 143 155 l26 35 84 -18 c110 -22 217 -22
311 2 78 20 175 64 217 98 l24 20 -63 97 c-35 54 -83 123 -107 153 -23 31 -43
60 -43 65 0 11 338 348 349 348 4 0 22 -14 40 -32z"/>
<path d="M9515 8114 c-16 -2 -82 -11 -145 -20 -105 -14 -256 -46 -266 -57 -10
-9 20 -116 52 -185 105 -230 326 -373 579 -374 114 -1 196 17 289 64 132 66
233 167 295 293 34 71 67 194 54 205 -11 9 -141 37 -233 51 -41 6 -86 13 -100
16 -32 6 -485 13 -525 7z"/>
<path d="M8609 7826 c-303 -190 -574 -457 -777 -766 l-63 -95 27 -22 c33 -26
111 -64 179 -88 74 -26 262 -32 345 -11 121 30 206 80 301 176 97 97 144 180
174 307 41 170 -2 384 -104 519 -16 21 -16 21 -82 -20z"/>
<path d="M9655 7284 c-74 -40 -115 -105 -115 -181 1 -115 87 -203 200 -203 78
0 145 42 182 114 29 57 22 150 -15 199 -47 61 -84 81 -157 84 -46 2 -74 -2
-95 -13z"/>
<path d="M8805 6933 c-96 -50 -136 -135 -110 -235 22 -87 101 -148 192 -148
164 1 260 179 167 313 -54 77 -172 111 -249 70z"/>
<path d="M7595 6526 c-58 -170 -93 -536 -75 -778 18 -255 61 -488 89 -488 41
1 114 25 197 65 151 73 263 200 321 367 35 99 43 248 18 351 -51 211 -202 382
-404 458 -77 28 -141 40 -146 25z"/>
<path d="M8460 6085 c-79 -36 -122 -100 -123 -184 -1 -121 78 -201 198 -201
116 0 205 86 205 198 0 56 -43 135 -92 167 -51 34 -136 43 -188 20z"/>
<path d="M11820 6524 c-155 -40 -302 -146 -390 -280 -72 -111 -95 -193 -95
-344 0 -145 19 -223 82 -329 91 -154 274 -283 434 -306 l46 -7 16 79 c82 384
81 743 0 1126 -9 42 -21 77 -27 76 -6 0 -36 -7 -66 -15z"/>
<path d="M10896 6093 c-74 -19 -146 -117 -146 -198 0 -53 35 -121 83 -159 32
-26 49 -31 107 -34 61 -4 75 -1 114 22 140 82 129 288 -19 357 -38 18 -97 23
-139 12z"/>
<path d="M10502 5219 c-113 -56 -141 -215 -55 -310 119 -131 330 -62 350 115
18 156 -150 266 -295 195z"/>
<path d="M11232 4960 c-144 -20 -263 -80 -368 -184 -130 -130 -188 -275 -188
-461 1 -93 5 -123 28 -190 29 -83 90 -195 107 -195 16 0 199 123 284 191 110
87 208 179 303 283 140 152 319 404 308 432 -7 19 -181 100 -241 113 -78 16
-164 20 -233 11z"/>
<path d="M9665 4872 c-51 -24 -101 -76 -116 -120 -17 -53 -7 -134 24 -180 30
-46 113 -92 166 -92 58 0 136 42 167 90 40 61 45 148 12 210 -47 88 -168 132
-253 92z"/>
<path d="M9600 4294 c-209 -44 -401 -216 -468 -419 -11 -33 -23 -76 -27 -96
l-7 -36 79 -17 c369 -82 779 -82 1131 1 l73 17 -7 40 c-21 126 -89 249 -193
348 -154 147 -371 208 -581 162z"/>
<path d="M18005 9040 c3 -5 13 -10 21 -10 8 0 12 5 9 10 -3 6 -13 10 -21 10
-8 0 -12 -4 -9 -10z"/>
<path d="M16593 9028 c-25 -12 -31 -38 -10 -38 17 0 57 29 57 41 0 12 -19 11
-47 -3z"/>
<path d="M18056 8996 c3 -8 13 -17 21 -20 26 -10 25 0 -1 18 -20 13 -24 13
-20 2z"/>
<path d="M17965 8981 c-3 -11 -15 -21 -25 -21 -13 0 -17 -5 -13 -20 7 -25 11
-25 48 5 28 23 29 26 13 41 -15 15 -16 15 -23 -5z"/>
<path d="M16393 8935 c-18 -20 -16 -25 11 -25 20 0 36 16 36 36 0 10 -36 2
-47 -11z"/>
<path d="M18140 8931 c0 -12 5 -21 10 -21 14 0 12 -28 -2 -33 -8 -2 -9 -8 -4
-13 5 -5 11 -4 13 4 3 6 11 12 19 12 20 0 18 8 -11 42 -22 26 -25 27 -25 9z"/>
<path d="M16606 8931 c-7 -11 41 -24 55 -16 5 4 7 11 4 16 -8 12 -52 12 -59 0z"/>
<path d="M18030 8930 c0 -5 12 -10 28 -10 21 0 24 2 12 10 -20 13 -40 13 -40
0z"/>
<path d="M16460 8920 c0 -5 7 -10 15 -10 8 0 15 5 15 10 0 6 -7 10 -15 10 -8
0 -15 -4 -15 -10z"/>
<path d="M17983 8883 c-20 -7 -15 -23 7 -23 11 0 20 4 20 9 0 13 -12 19 -27
14z"/>
<path d="M16518 8863 c12 -2 30 -2 40 0 9 3 -1 5 -23 4 -22 0 -30 -2 -17 -4z"/>
<path d="M18203 8856 c-5 -7 -15 -15 -23 -18 -8 -3 4 -5 26 -4 28 0 40 5 37
13 -7 18 -32 24 -40 9z"/>
<path d="M17930 8830 c12 -22 30 -18 30 6 0 8 -9 14 -20 14 -18 0 -19 -3 -10
-20z"/>
<path d="M18057 8842 c-28 -3 -33 -27 -6 -27 8 0 17 -4 20 -9 4 -5 10 1 14 13
8 27 8 27 -28 23z"/>
<path d="M16700 8810 c0 -5 5 -10 10 -10 6 0 10 5 10 10 0 6 -4 10 -10 10 -5
0 -10 -4 -10 -10z"/>
<path d="M16960 8811 c0 -14 21 -18 72 -13 27 2 45 8 42 13 -7 12 -114 12
-114 0z"/>
<path d="M17300 8810 c0 -5 11 -10 24 -10 14 0 28 5 31 10 4 6 -7 10 -24 10
-17 0 -31 -4 -31 -10z"/>
<path d="M17445 8810 c-3 -5 3 -10 14 -10 12 0 21 5 21 10 0 6 -6 10 -14 10
-8 0 -18 -4 -21 -10z"/>
<path d="M17635 8810 c-8 -12 20 -24 35 -15 5 3 10 10 10 16 0 12 -37 12 -45
-1z"/>
<path d="M17145 8781 c13 -13 99 -17 103 -5 1 5 -24 10 -55 12 -38 2 -55 0
-48 -7z"/>
<path d="M17420 8780 c0 -5 5 -10 10 -10 6 0 10 5 10 10 0 6 -4 10 -10 10 -5
0 -10 -4 -10 -10z"/>
<path d="M18295 8780 c-12 -20 15 -50 45 -50 17 0 30 3 30 8 0 13 -69 52 -75
42z"/>
<path d="M17910 8765 c7 -9 15 -13 17 -11 7 7 -7 26 -19 26 -6 0 -6 -6 2 -15z"/>
<path d="M17457 8754 c-14 -14 -7 -25 13 -22 12 2 21 8 21 13 0 12 -24 18 -34
9z"/>
<path d="M18177 8754 c-8 -8 1 -24 14 -24 5 0 9 7 9 15 0 15 -12 20 -23 9z"/>
<path d="M17318 8743 c6 -2 18 -2 25 0 6 3 1 5 -13 5 -14 0 -19 -2 -12 -5z"/>
<path d="M17730 8728 c0 -4 -1 -11 -2 -15 -2 -5 11 -9 29 -10 18 0 42 -8 55
-17 24 -17 118 -23 118 -7 0 5 -24 12 -52 15 -29 4 -60 13 -68 20 -17 16 -80
26 -80 14z"/>
<path d="M17407 8723 c-25 -6 -11 -23 19 -23 15 0 24 5 22 12 -5 14 -17 17
-41 11z"/>
<path d="M17570 8710 c0 -5 14 -10 30 -10 17 0 30 5 30 10 0 6 -13 10 -30 10
-16 0 -30 -4 -30 -10z"/>
<path d="M18417 8713 c-13 -13 -7 -21 13 -16 11 3 17 9 14 14 -6 11 -18 12
-27 2z"/>
<path d="M18262 8673 c2 -14 9 -28 16 -31 18 -6 15 45 -4 52 -12 5 -15 0 -12
-21z"/>
<path d="M17697 8674 c-13 -13 -7 -24 14 -24 11 0 19 5 17 12 -5 14 -22 21
-31 12z"/>
<path d="M18480 8659 c14 -10 36 -28 48 -39 27 -23 31 -23 52 -10 12 7 7 12
-22 25 -21 8 -42 15 -47 15 -5 0 -11 7 -15 15 -3 8 -13 15 -23 15 -15 -1 -14
-4 7 -21z"/>
<path d="M18380 8655 c0 -8 5 -15 10 -15 6 0 10 7 10 15 0 8 -4 15 -10 15 -5
0 -10 -7 -10 -15z"/>
<path d="M17900 8630 c0 -5 7 -10 15 -10 8 0 15 5 15 10 0 6 -7 10 -15 10 -8
0 -15 -4 -15 -10z"/>
<path d="M18166 8621 c-4 -5 1 -8 9 -7 21 3 31 16 12 16 -9 0 -18 -4 -21 -9z"/>
<path d="M18410 8626 c0 -2 7 -7 16 -10 8 -3 12 -2 9 4 -6 10 -25 14 -25 6z"/>
<path d="M18422 8544 c-2 -23 1 -25 35 -22 39 3 60 28 23 28 -12 0 -29 4 -39
9 -14 8 -17 5 -19 -15z"/>
<path d="M18596 8545 c-4 -12 -1 -16 11 -13 18 3 21 20 5 26 -5 1 -12 -4 -16
-13z"/>
<path d="M18687 8536 c-4 -11 -1 -13 10 -9 12 5 14 3 8 -8 -6 -11 -5 -11 5 -2
7 6 9 16 6 22 -10 15 -23 14 -29 -3z"/>
<path d="M18380 8510 c0 -5 5 -10 10 -10 6 0 10 5 10 10 0 6 -4 10 -10 10 -5
0 -10 -4 -10 -10z"/>
<path d="M18510 8491 l-25 -19 28 -7 c15 -4 25 -11 22 -15 -7 -12 27 -22 38
-11 9 9 -30 38 -46 33 -5 -1 -6 2 -2 8 3 5 13 10 21 10 8 0 14 5 14 10 0 16
-23 11 -50 -9z"/>
<path d="M18650 8490 c-25 -6 -35 -30 -15 -36 13 -4 48 22 44 34 -2 4 -15 6
-29 2z"/>
<path d="M18800 8490 c20 -13 43 -13 35 0 -3 6 -16 10 -28 10 -18 0 -19 -2 -7
-10z"/>
<path d="M18690 8480 c0 -5 5 -10 11 -10 5 0 7 5 4 10 -3 6 -8 10 -11 10 -2 0
-4 -4 -4 -10z"/>
<path d="M18883 8463 c9 -2 23 -2 30 0 6 3 -1 5 -18 5 -16 0 -22 -2 -12 -5z"/>
<path d="M18980 8430 c0 -5 5 -10 10 -10 6 0 10 5 10 10 0 6 -4 10 -10 10 -5
0 -10 -4 -10 -10z"/>
<path d="M18904 8415 c-10 -8 -14 -15 -8 -15 6 0 17 7 24 15 16 19 9 19 -16 0z"/>
<path d="M18775 8390 c3 -5 11 -10 16 -10 6 0 7 5 4 10 -3 6 -11 10 -16 10 -6
0 -7 -4 -4 -10z"/>
<path d="M19180 8380 c0 -5 12 -10 28 -10 21 0 24 2 12 10 -20 13 -40 13 -40
0z"/>
<path d="M19120 8361 c0 -12 6 -21 15 -21 8 0 15 4 15 9 0 5 -7 14 -15 21 -13
10 -15 9 -15 -9z"/>
<path d="M18752 8348 c2 -12 8 -23 14 -25 7 -2 10 6 7 22 -6 30 -26 34 -21 3z"/>
<path d="M19261 8351 c-10 -6 -10 -10 -1 -16 13 -8 24 -1 19 14 -3 6 -10 7
-18 2z"/>
<path d="M18840 8330 c0 -5 5 -10 10 -10 6 0 10 5 10 10 0 6 -4 10 -10 10 -5
0 -10 -4 -10 -10z"/>
<path d="M19335 8310 c3 -5 10 -10 16 -10 5 0 9 5 9 10 0 6 -7 10 -16 10 -8 0
-12 -4 -9 -10z"/>
<path d="M19100 8296 c0 -15 24 -28 34 -19 13 14 5 33 -14 33 -11 0 -20 -6
-20 -14z"/>
<path d="M18895 8283 c3 -8 5 -17 5 -19 0 -2 5 -4 10 -4 6 0 10 8 10 18 0 10
-7 19 -15 19 -10 0 -14 -6 -10 -14z"/>
<path d="M19007 8273 c-14 -13 -6 -23 17 -23 13 0 26 -7 30 -15 3 -8 16 -15
28 -15 22 1 21 2 -10 30 -32 29 -52 37 -65 23z"/>
<path d="M19379 8269 c-17 -10 -7 -20 38 -35 44 -15 52 -11 29 15 -21 23 -49
32 -67 20z"/>
<path d="M19025 8197 c-23 -17 -12 -37 21 -37 26 0 33 17 9 26 -8 4 -12 10 -9
15 7 13 1 11 -21 -4z"/>
<path d="M19106 8195 c-3 -8 -1 -15 3 -15 5 0 11 7 15 15 3 8 1 15 -3 15 -5 0
-11 -7 -15 -15z"/>
<path d="M19402 8174 c-23 -16 -29 -34 -11 -34 21 0 79 32 73 41 -8 14 -37 11
-62 -7z"/>
<path d="M19529 8163 c0 -5 -2 -16 -4 -25 -2 -10 1 -18 6 -18 6 0 7 -4 4 -10
-3 -5 -2 -10 4 -10 13 0 25 45 16 59 -7 13 -25 15 -26 4z"/>
<path d="M19475 8140 c3 -5 -1 -10 -9 -10 -24 0 -30 -21 -11 -38 10 -10 15
-12 11 -5 -3 6 1 18 9 26 17 18 20 37 4 37 -5 0 -7 -4 -4 -10z"/>
<path d="M19075 8120 c3 -5 10 -10 16 -10 5 0 9 5 9 10 0 6 -7 10 -16 10 -8 0
-12 -4 -9 -10z"/>
<path d="M19280 8090 c0 -9 -4 -21 -10 -28 -7 -9 -7 -9 2 -2 7 6 24 10 39 10
29 0 57 24 40 34 -20 13 -71 2 -71 -14z"/>
<path d="M19112 8091 c4 -13 18 -16 19 -4 0 4 -5 9 -11 12 -7 2 -11 -2 -8 -8z"/>
<path d="M19200 8085 c0 -9 5 -15 11 -13 6 2 11 8 11 13 0 5 -5 11 -11 13 -6
2 -11 -4 -11 -13z"/>
<path d="M19300 8015 c-7 -8 -17 -15 -22 -15 -14 0 -52 -39 -45 -46 7 -7 77
36 77 48 0 15 39 -6 43 -24 3 -11 10 -17 16 -13 16 9 13 35 -3 35 -8 0 -16 7
-20 15 -3 8 -12 15 -19 15 -8 0 -20 -7 -27 -15z"/>
<path d="M19610 7991 c0 -20 13 -41 21 -35 15 9 10 44 -6 44 -8 0 -15 -4 -15
-9z"/>
<path d="M19313 7952 c-29 -4 -30 -28 -1 -35 25 -7 38 -1 38 18 0 18 -9 22
-37 17z"/>
</g>
</svg>
